<?xml version="1.0" encoding="UTF-8" standalone="no"?>
<!-- Created with Inkscape (http://www.inkscape.org/) -->

<svg
   width="49.883385mm"
   height="50.000004mm"
   viewBox="0 0 49.883385 50.000004"
   version="1.1"
   id="svg1"
   xml:space="preserve"
   xmlns="http://www.w3.org/2000/svg"
   xmlns:svg="http://www.w3.org/2000/svg"><defs
     id="defs1" /><g
     id="layer1"><path
       style="fill:#020202;stroke:none;stroke-width:0.276547"
       d="M 23.523241,0.10049885 C 17.777156,0.8549564 12.622346,2.4284066 8.2063503,6.4170484 -1.2781395,14.983688 -2.6987151,29.5531 4.7669151,39.863501 c 1.6239533,2.242762 3.7010228,4.1986 5.9759899,5.767324 2.358552,1.626359 5.026073,2.858298 7.804786,3.56191 3.163034,0.800928 6.424758,1.0196 9.658423,0.594392 C 40.128652,48.219381 49.336498,37.976695 49.86055,26.010008 50.384721,14.040722 41.826405,3.1420539 30.157309,0.62398116 28.061444,0.17171536 25.665889,-0.18083016 23.523241,0.10049885 M 19.718408,10.720968 c 1.681432,-0.198387 3.477397,-0.02785 5.17067,-0.02785 4.221421,0 9.733486,-0.7251185 12.608629,3.121915 2.007403,2.685973 1.732664,6.290581 1.732664,9.4633 0,5.093418 1.19159,12.709265 -4.58531,15.231453 -0.959523,0.418925 -1.990622,0.616875 -3.024354,0.740505 -2.021604,0.24178 -4.111102,0.125412 -6.14627,0.125412 -4.335152,0 -9.928026,0.809073 -13.041248,-2.926793 -2.254384,-2.70526 -1.885403,-6.663883 -1.885403,-9.951102 0,-4.9015 -1.124497,-12.223057 4.292632,-14.797852 1.589555,-0.755525 3.177501,-0.778346 4.87799,-0.978987 m -0.682918,2.647666 c -1.238538,0.162621 -2.428334,0.235104 -3.512154,0.944056 -1.62766,1.064694 -2.08465,2.758959 -2.260437,4.575451 -0.260987,2.696927 -0.081,5.483865 -0.081,8.195026 0,2.542062 -0.405302,5.707112 1.347094,7.800944 1.122133,1.340772 2.684686,1.595207 4.311375,1.787769 2.073227,0.245425 4.253235,0.06971 6.341388,0.06971 2.189022,0 4.463767,0.172422 6.634067,-0.139336 0.594254,-0.08536 1.20716,-0.229125 1.756077,-0.476582 3.950583,-1.780977 3.024354,-7.28365 3.024354,-10.798579 v -3.317035 c 0,-2.111565 0.215284,-4.611007 -1.051102,-6.438947 -0.898118,-1.296377 -2.382426,-1.97805 -3.924447,-2.129753 -2.450504,-0.241083 -4.952121,-0.114123 -7.414547,-0.114123 -1.690184,0 -3.494812,-0.178638 -5.17067,0.0414 m 13.170574,2.332178 c 2.182366,-0.387053 2.860812,3.022291 0.68292,3.361595 -2.192565,0.341594 -2.881329,-2.971699 -0.68292,-3.361595 m -7.609665,1.946983 c 0.814813,-0.09226 1.759611,0.113091 2.536555,0.351093 7.197437,2.204792 6.482067,13.479549 -1.170717,14.336246 -2.047208,0.229181 -4.139318,-0.229202 -5.75603,-1.576461 -3.5694,-2.974498 -3.593163,-8.770031 0.19512,-11.601264 1.268879,-0.948317 2.647013,-1.334327 4.195072,-1.509614 m -0.292679,2.649018 c -1.056867,0.165063 -2.039076,0.597785 -2.812297,1.351233 -3.133683,3.053544 -0.398814,8.808338 3.983014,8.123963 0.965699,-0.150829 1.885446,-0.52096 2.625383,-1.173203 3.374358,-2.974452 0.726538,-9.008345 -3.7961,-8.301993 z"
       id="path1" /></g></svg>
