<?xml version="1.0" encoding="UTF-8" standalone="no"?>
<!-- Created with Inkscape (http://www.inkscape.org/) -->

<svg
   width="50mm"
   height="27.364666mm"
   viewBox="0 0 50 27.364666"
   version="1.1"
   id="svg1"
   xml:space="preserve"
   xmlns="http://www.w3.org/2000/svg"
   xmlns:svg="http://www.w3.org/2000/svg"><defs
     id="defs1" /><g
     id="layer1"><path
       style="fill:#000000;stroke-width:0.369435"
       d="M 24.02254,27.167103 C 23.679501,27.013031 21.047832,24.437017 12.066725,15.464132 5.7329492,9.1361567 0.44383051,3.7792186 0.31312743,3.5598223 -0.2287134,2.6503033 -0.05535795,1.4877584 0.74024137,0.69554235 1.0185625,0.41840342 1.3569024,0.19199528 1.6011043,0.11947522 1.9131275,0.02681358 7.1650504,0 25.000002,0 c 17.834947,0 23.08687,0.02682097 23.398894,0.11947522 0.2442,0.0725201 0.58254,0.2989282 0.860861,0.57606713 0.7956,0.79221605 0.968957,1.95476095 0.427115,2.86427995 -0.130703,0.2193963 -5.41982,5.5763344 -11.753595,11.9043097 -8.981107,8.972885 -11.612776,11.548899 -11.955815,11.702971 -0.269372,0.12099 -0.648227,0.197563 -0.97746,0.197563 -0.329233,0 -0.708089,-0.07657 -0.977462,-0.197563 z"
       id="path1" /></g></svg>
