<!--?xml version="1.0" standalone="no"?-->
              <svg id="sw-js-blob-svg" viewBox="0 0 100 100" xmlns="http://www.w3.org/2000/svg" version="1.1">
                    <defs> 
                        <linearGradient id="sw-gradient" x1="0" x2="1" y1="1" y2="0">
                            <stop id="stop1" stop-color="rgba(248, 117, 55, 1)" offset="0%" data-darkreader-inline-stopcolor="" style="--darkreader-inline-stopcolor: #a93a06;"></stop>
                            <stop id="stop2" stop-color="rgba(251, 168, 31, 1)" offset="100%" data-darkreader-inline-stopcolor="" style="--darkreader-inline-stopcolor: #b97403;"></stop>
                        </linearGradient>
                    </defs>
                <path fill="url(#sw-gradient)" d="M19.5,-23.8C25.7,-18.1,31.4,-12.3,34.6,-4.5C37.8,3.2,38.6,13,35.2,21.6C31.7,30.2,24.1,37.7,14.9,41.2C5.6,44.7,-5.2,44.3,-11.7,39C-18.2,33.6,-20.5,23.4,-25.1,14.8C-29.7,6.2,-36.5,-0.7,-37.2,-8.2C-37.9,-15.7,-32.3,-23.8,-25.1,-29.4C-17.8,-34.9,-8.9,-38,-1.1,-36.6C6.7,-35.3,13.3,-29.6,19.5,-23.8Z" width="100%" height="100%" transform="translate(50 50)" stroke-width="0" style="transition: all 0.3s ease 0s;"></path>
              </svg>