<!--?xml version="1.0" standalone="no"?-->
              <svg id="sw-js-blob-svg" viewBox="0 0 100 100" xmlns="http://www.w3.org/2000/svg" version="1.1">
                    <defs> 
                        <linearGradient id="sw-gradient" x1="0" x2="1" y1="1" y2="0">
                            <stop id="stop1" stop-color="rgba(248, 117, 55, 1)" offset="0%" data-darkreader-inline-stopcolor="" style="--darkreader-inline-stopcolor: #a93a06;"></stop>
                            <stop id="stop2" stop-color="rgba(251, 168, 31, 1)" offset="100%" data-darkreader-inline-stopcolor="" style="--darkreader-inline-stopcolor: #b97403;"></stop>
                        </linearGradient>
                    </defs>
                <path fill="url(#sw-gradient)" d="M19.2,-28.5C24.8,-22.3,29.2,-16.6,32.6,-9.8C36,-2.9,38.4,5.2,36.2,11.7C34,18.3,27.3,23.3,20.5,27.5C13.7,31.7,6.8,35.1,0.1,35.1C-6.7,35,-13.4,31.3,-20.4,27.2C-27.5,23,-34.8,18.4,-36.7,12C-38.6,5.7,-35.2,-2.3,-32.5,-10.6C-29.9,-19,-28.2,-27.7,-22.9,-34C-17.6,-40.4,-8.8,-44.4,-1,-43C6.8,-41.6,13.6,-34.8,19.2,-28.5Z" width="100%" height="100%" transform="translate(50 50)" stroke-width="0" style="transition: all 0.3s ease 0s;"></path>
              </svg>