<?xml version="1.0" encoding="UTF-8" standalone="no"?>
<!-- Created with Inkscape (http://www.inkscape.org/) -->

<svg
   width="181.91278mm"
   height="156.17108mm"
   viewBox="0 0 181.91278 156.17108"
   version="1.1"
   id="svg1"
   xml:space="preserve"
   xmlns:xlink="http://www.w3.org/1999/xlink"
   xmlns="http://www.w3.org/2000/svg"
   xmlns:svg="http://www.w3.org/2000/svg"><defs
     id="defs1"><linearGradient
       id="linearGradient5"><stop
         style="stop-color:#6c63ff;stop-opacity:1;"
         offset="0"
         id="stop5" /><stop
         style="stop-color:#837ce6;stop-opacity:1;"
         offset="1"
         id="stop6" /></linearGradient><linearGradient
       id="linearGradient1"><stop
         style="stop-color:#6c63ff;stop-opacity:1;"
         offset="0"
         id="stop3" /><stop
         style="stop-color:#847ce6;stop-opacity:1;"
         offset="1"
         id="stop4" /></linearGradient><linearGradient
       xlink:href="#linearGradient1"
       id="linearGradient4"
       x1="31.462885"
       y1="246.55367"
       x2="92.554543"
       y2="176.39851"
       gradientUnits="userSpaceOnUse"
       gradientTransform="translate(-12.782495,-103.16169)" /><linearGradient
       xlink:href="#linearGradient5"
       id="linearGradient6"
       x1="205.52438"
       y1="237.40924"
       x2="137.69603"
       y2="136.09911"
       gradientUnits="userSpaceOnUse"
       gradientTransform="translate(-45.206719,-122.18429)" /></defs><g
     id="layer1"
     transform="translate(-3.7812289,-2.6784531)"><path
       fill="url(#sw-gradient)"
       d="m 79.772053,73.236816 c 7.53822,8.34585 13.461105,16.01871 18.037895,25.172292 4.576782,9.288152 7.807462,20.191672 4.846012,28.941402 -2.96146,8.88433 -11.980412,15.61486 -21.133967,21.26854 -9.15357,5.65367 -18.441734,10.23048 -27.460687,10.23048 -9.153564,-0.13482 -18.172516,-5.11524 -27.595297,-10.6343 -9.557397,-5.65366 -19.3840115,-11.84576 -21.9416285,-20.46092 -2.557611,-8.48047 2.019169,-19.24939 5.6536705,-30.422102 3.499893,-11.307342 5.788285,-23.018532 12.922675,-31.499022 7.134396,-8.6151 18.980183,-13.99958 29.479854,-12.11501 10.499679,1.88457 19.653243,11.0381 27.191473,19.51864 z"
       width="100%"
       height="100%"
       stroke-width="0"
       id="path1-4"
       style="fill:url(#linearGradient4);fill-opacity:1" /><path
       fill="url(#sw-gradient)"
       d="m 158.99743,22.265559 c 9.24555,8.49995 17.74543,17.14897 22.51734,28.780428 4.7719,11.48235 5.96483,26.09626 0.89473,38.92072 -5.21924,12.824423 -16.5525,24.008553 -30.27163,29.227783 -13.86832,5.21924 -29.97342,4.62278 -39.66631,-3.28064 C 102.77869,107.86129 99.348886,92.650897 92.489316,79.826427 85.629732,67.001967 75.489482,56.712627 74.445632,45.528497 73.401782,34.344429 81.752582,22.265559 92.489316,13.914799 103.37517,5.713121 116.64695,1.090351 128.27841,3.178071 c 11.63146,1.93853 21.47348,10.438468 30.71902,19.087488 z"
       width="100%"
       height="100%"
       stroke-width="0"
       style="fill:url(#linearGradient6);fill-opacity:1"
       id="path1-0" /><g
       id="g6"><path
         d="m 140.23367,101.86021 c 3.35398,-3.022357 8.34272,-4.542045 12.52736,-2.847327 a 20.801603,20.801603 0 0 0 -9.3478,10.797467 c -0.66619,1.77244 -1.2226,3.81317 -2.86118,4.76209 -1.01955,0.59046 -2.288,0.61931 -3.43114,0.33429 -1.1432,-0.28507 -2.19108,-0.85648 -3.2246,-1.42217 l -0.29404,-0.007 c 1.32012,-4.31753 3.27744,-8.59534 6.6314,-11.6177 z"
         fill="#e6e6e6"
         id="path2"
         style="stroke-width:0.180153" /><path
         d="m 152.73763,99.10468 a 17.779766,17.779766 0 0 0 -9.89156,4.67147 7.6566116,7.6566116 0 0 0 -1.50344,1.8694 4.3913926,4.3913926 0 0 0 -0.50758,2.25474 c 0.0181,0.73112 0.1213,1.47688 -0.0386,2.19967 a 2.6888557,2.6888557 0 0 1 -1.33756,1.74545 c -0.81895,0.47074 -1.75821,0.61914 -2.68177,0.73234 -1.02543,0.12569 -2.09252,0.24 -2.98016,0.81516 -0.10755,0.0697 -0.2094,-0.10127 -0.10201,-0.17085 1.54434,-1.00068 3.49853,-0.63657 5.1591,-1.30443 0.77485,-0.31163 1.46049,-0.85867 1.70317,-1.68573 0.21221,-0.72323 0.10645,-1.49236 0.0817,-2.23247 a 4.6859724,4.6859724 0 0 1 0.41417,-2.22315 7.0783243,7.0783243 0 0 1 1.42602,-1.9203 17.24947,17.24947 0 0 1 4.38373,-3.13823 18.095065,18.095065 0 0 1 5.87296,-1.812084 c 0.12668,-0.01632 0.1277,0.182786 0.002,0.199011 z"
         fill="#ffffff"
         id="path3"
         style="stroke-width:0.180153" /><path
         d="m 143.67481,102.90086 a 2.6675327,2.6675327 0 0 1 0.29409,-3.441634 c 0.0912,-0.08985 0.23511,0.04766 0.14378,0.137637 a 2.4700737,2.4700737 0 0 0 -0.26702,3.201997 c 0.0748,0.10393 -0.0965,0.20534 -0.17085,0.10201 z"
         fill="#ffffff"
         id="path4"
         style="stroke-width:0.180153" /><path
         d="m 140.77704,107.53079 a 5.1414419,5.1414419 0 0 0 3.67402,-0.73565 c 0.10779,-0.0693 0.20966,0.10163 0.102,0.17085 a 5.3478924,5.3478924 0 0 1 -3.8247,0.75774 c -0.12626,-0.0227 -0.0769,-0.21556 0.0487,-0.19294 z"
         fill="#ffffff"
         id="path5"
         style="stroke-width:0.180153" /><path
         d="m 148.719,100.04659 a 1.5099511,1.5099511 0 0 0 1.12931,0.88175 c 0.12648,0.0211 0.077,0.21394 -0.0487,0.19294 a 1.692025,1.692025 0 0 1 -1.25148,-0.97268 0.10283702,0.10283702 0 0 1 0.0344,-0.13643 0.099996,0.099996 0 0 1 0.13643,0.0344 z"
         fill="#ffffff"
         id="path6"
         style="stroke-width:0.180153" /><path
         d="m 157.36901,113.58814 c -0.0794,-0.0109 -0.15871,-0.0219 -0.23922,-0.0316 a 19.885104,19.885104 0 0 0 -3.22153,-0.16365 c -0.0833,0.001 -0.16764,0.004 -0.25069,0.007 a 20.963489,20.963489 0 0 0 -7.52144,1.7313 20.358213,20.358213 0 0 0 -2.73165,1.45123 c -1.20482,0.76284 -2.45045,1.68581 -3.79728,1.99693 a 3.4924267,3.4924267 0 0 1 -0.42555,0.0758 l -5.5647,-4.81829 c -0.007,-0.0173 -0.0155,-0.0334 -0.0227,-0.0507 l -0.23097,-0.18222 c 0.043,-0.0316 0.0883,-0.0635 0.13129,-0.0951 0.0249,-0.0185 0.051,-0.0358 0.0758,-0.0543 0.017,-0.012 0.034,-0.0239 0.0487,-0.0356 0.006,-0.004 0.0113,-0.008 0.0159,-0.0107 0.0146,-0.0118 0.0295,-0.0211 0.043,-0.0316 q 0.37894,-0.26834 0.76298,-0.53228 c 0.001,-10e-4 0.001,-10e-4 0.003,-10e-4 a 29.933699,29.933699 0 0 1 6.23349,-3.35075 c 0.0661,-0.025 0.13322,-0.0513 0.20185,-0.074 a 19.426131,19.426131 0 0 1 3.05166,-0.85871 17.173812,17.173812 0 0 1 1.72097,-0.24038 14.281127,14.281127 0 0 1 4.454,0.31555 c 2.90827,0.67437 5.5685,2.27135 7.14412,4.76192 0.0403,0.0637 0.0794,0.12645 0.11854,0.19147 z"
         fill="#e6e6e6"
         id="path7"
         style="stroke-width:0.180153" /><path
         d="m 157.29535,113.64794 a 17.779768,17.779768 0 0 0 -10.71041,-2.22549 7.6565449,7.6565449 0 0 0 -2.32592,0.58743 4.3913836,4.3913836 0 0 0 -1.76279,1.49468 c -0.42573,0.59467 -0.79233,1.25225 -1.3552,1.73308 a 2.6888539,2.6888539 0 0 1 -2.11884,0.58834 c -0.9373,-0.11721 -1.77659,-0.56422 -2.58216,-1.02987 -0.89442,-0.51703 -1.81526,-1.06823 -2.87028,-1.14341 -0.12783,-0.009 -0.10622,-0.20693 0.0214,-0.19783 1.83555,0.13081 3.17665,1.59809 4.90461,2.06462 0.8063,0.21769 1.6831,0.19372 2.37481,-0.32054 0.60487,-0.44969 0.98349,-1.12747 1.40935,-1.73331 a 4.68594,4.68594 0 0 1 1.66917,-1.5257 7.0783477,7.0783477 0 0 1 2.29475,-0.67468 17.249596,17.249596 0 0 1 5.3896,0.1336 18.09509,18.09509 0 0 1 5.78023,2.08908 c 0.11098,0.0632 -0.008,0.22283 -0.11834,0.16001 z"
         fill="#ffffff"
         id="path8"
         style="stroke-width:0.180153" /><path
         d="m 147.77363,111.22253 a 2.6675327,2.6675327 0 0 1 2.30691,-2.57089 c 0.12692,-0.0168 0.15903,0.17961 0.0319,0.19645 a 2.4700737,2.4700737 0 0 0 -2.14102,2.39587 c -0.003,0.12801 -0.20067,0.10586 -0.19783,-0.0214 z"
         fill="#ffffff"
         id="path9"
         style="stroke-width:0.180153" /><path
         d="m 142.67238,113.17461 a 5.1414509,5.1414509 0 0 0 3.37642,1.62464 c 0.12779,0.01 0.10622,0.20738 -0.0214,0.19783 a 5.3478852,5.3478852 0 0 1 -3.51002,-1.69772 c -0.0871,-0.0942 0.0684,-0.21842 0.15503,-0.12475 z"
         fill="#ffffff"
         id="path10"
         style="stroke-width:0.180153" /><path
         d="m 153.5196,111.98051 a 1.5099511,1.5099511 0 0 0 0.37082,1.38394 c 0.0883,0.093 -0.0673,0.21717 -0.15504,0.12475 a 1.6920304,1.6920304 0 0 1 -0.41361,-1.53011 0.10283522,0.10283522 0 0 1 0.10962,-0.0882 0.099996,0.099996 0 0 1 0.0882,0.10963 z"
         fill="#ffffff"
         id="path11"
         style="stroke-width:0.180153" /><path
         d="m 52.433796,104.86608 c 2.746361,-4.16557 7.659195,-7.178793 12.606269,-6.53041 a 22.988274,22.988274 0 0 0 -6.993919,14.14879 c -0.219427,2.081 -0.246788,4.41843 -1.735307,5.88917 -0.926169,0.91516 -2.274798,1.29891 -3.576716,1.31208 -1.301991,0.0131 -2.581694,-0.30647 -3.844449,-0.62398 l -0.316339,0.0747 c 0.210787,-4.98498 1.1141,-10.10476 3.860461,-14.27034 z"
         fill="#e6e6e6"
         id="path12"
         style="stroke-width:0.180153" /><path
         d="m 65.040579,98.440362 a 19.648779,19.648779 0 0 0 -9.279725,7.748118 8.4613717,8.4613717 0 0 0 -1.087912,2.41763 4.853018,4.853018 0 0 0 0.08439,2.55273 c 0.22277,0.77692 0.54061,1.54582 0.570643,2.36336 a 2.9715093,2.9715093 0 0 1 -0.944977,2.23892 c -0.744935,0.7313 -1.708215,1.15132 -2.664492,1.52932 -1.061765,0.41971 -2.171256,0.83883 -2.960603,1.70092 -0.09564,0.10446 -0.252126,-0.05 -0.15663,-0.15435 1.373328,-1.49989 3.564686,-1.65412 5.154924,-2.83039 0.742034,-0.54887 1.323157,-1.32468 1.352618,-2.27676 0.02576,-0.83255 -0.301318,-1.62574 -0.533676,-2.41044 a 5.1785391,5.1785391 0 0 1 -0.175516,-2.49294 7.8224105,7.8224105 0 0 1 0.99095,-2.45054 19.062812,19.062812 0 0 1 3.815471,-4.57599 19.99727,19.99727 0 0 1 5.777185,-3.571929 c 0.130947,-0.05271 0.187432,0.159967 0.05734,0.212332 z"
         fill="#ffffff"
         id="path13"
         style="stroke-width:0.180153" /><path
         d="m 56.403701,105.02178 a 2.9479416,2.9479416 0 0 1 -0.64293,-3.76275 c 0.07255,-0.12147 0.26472,-0.0144 0.192069,0.10719 a 2.7297307,2.7297307 0 0 0 0.605211,3.49892 c 0.108901,0.0904 -0.04607,0.24646 -0.15435,0.15663 z"
         fill="#ffffff"
         id="path14"
         style="stroke-width:0.180153" /><path
         d="m 54.592496,110.77978 a 5.681924,5.681924 0 0 0 3.724816,-1.80891 c 0.096,-0.10411 0.252521,0.0504 0.156629,0.15435 a 5.9100469,5.9100469 0 0 1 -3.879833,1.87446 c -0.141366,0.0108 -0.142211,-0.20916 -0.0016,-0.2199 z"
         fill="#ffffff"
         id="path15"
         style="stroke-width:0.180153" /><path
         d="m 61.004566,100.56575 a 1.6686789,1.6686789 0 0 0 1.453132,0.62888 c 0.141159,-0.0126 0.141853,0.2074 0.0016,0.2199 a 1.8698905,1.8698905 0 0 1 -1.609097,-0.69215 0.11364442,0.11364442 0 0 1 -0.0011,-0.15549 0.11050795,0.11050795 0 0 1 0.155492,-0.001 z"
         fill="#ffffff"
         id="path16"
         style="stroke-width:0.180153" /><path
         d="m 74.023277,112.64242 c -0.08791,0.0104 -0.17583,0.0207 -0.264662,0.0327 a 21.975715,21.975715 0 0 0 -3.491041,0.7212 c -0.08872,0.0245 -0.178268,0.0506 -0.266103,0.0776 a 23.167173,23.167173 0 0 0 -7.562759,3.94414 22.49804,22.49804 0 0 0 -2.517856,2.31208 c -1.076368,1.15106 -2.151843,2.48474 -3.505753,3.19217 a 3.8596462,3.8596462 0 0 1 -0.434049,0.19948 l -7.292066,-3.60521 c -0.01247,-0.0165 -0.02582,-0.0314 -0.03836,-0.048 l -0.297731,-0.13064 c 0.0372,-0.0458 0.07676,-0.0925 0.113956,-0.13827 0.02147,-0.0267 0.04456,-0.0525 0.06602,-0.0792 0.01483,-0.0175 0.02974,-0.035 0.04211,-0.0517 0.0049,-0.006 0.0099,-0.0116 0.014,-0.0158 0.01238,-0.0167 0.02564,-0.0308 0.0372,-0.0458 q 0.330641,-0.39242 0.667946,-0.78156 c 9.01e-4,-0.002 9.01e-4,-0.002 0.0033,-0.003 1.718454,-1.97232 3.616662,-3.8185 5.734741,-5.31788 0.06374,-0.0451 0.128223,-0.0919 0.195287,-0.13533 a 21.468337,21.468337 0 0 1 3.024948,-1.76738 18.979491,18.979491 0 0 1 1.773755,-0.73587 15.782303,15.782303 0 0 1 4.851478,-0.9016 c 3.298099,-0.0878 6.587574,0.88012 8.965628,3.10551 0.06081,0.057 0.120062,0.11318 0.180031,0.17181 z"
         fill="#e6e6e6"
         id="path17"
         style="stroke-width:0.180153" /><path
         d="m 73.961125,112.72687 a 19.648788,19.648788 0 0 0 -12.074247,0.5994 8.4614491,8.4614491 0 0 0 -2.324218,1.27534 4.8530053,4.8530053 0 0 0 -1.469537,2.08903 c -0.28989,0.75445 -0.499047,1.55974 -0.967284,2.23058 a 2.9715147,2.9715147 0 0 1 -2.102492,1.21871 c -1.035082,0.1354 -2.057088,-0.1092 -3.048209,-0.38313 -1.100452,-0.30414 -2.238658,-0.63749 -3.387947,-0.4244 -0.139259,0.0258 -0.171173,-0.19176 -0.03213,-0.21754 1.999566,-0.37075 3.842099,0.82546 5.820008,0.84371 0.922926,0.009 1.854015,-0.26104 2.450755,-1.00349 0.521826,-0.64924 0.738221,-1.47948 1.025139,-2.24591 a 5.1785427,5.1785427 0 0 1 1.360791,-2.09615 7.8223726,7.8223726 0 0 1 2.266612,-1.36 19.062866,19.062866 0 0 1 5.801508,-1.35649 19.997232,19.997232 0 0 1 6.763308,0.62628 c 0.136288,0.0367 0.05334,0.24057 -0.08206,0.20406 z"
         fill="#ffffff"
         id="path18"
         style="stroke-width:0.180153" /><path
         d="m 63.102608,112.78176 a 2.9479434,2.9479434 0 0 1 1.752094,-3.39143 c 0.131061,-0.0533 0.22005,0.14786 0.08881,0.20123 a 2.7297343,2.7297343 0 0 0 -1.623363,3.15807 c 0.03255,0.13771 -0.185176,0.16905 -0.217542,0.0321 z"
         fill="#ffffff"
         id="path19"
         style="stroke-width:0.180153" /><path
         d="m 58.189743,116.28874 a 5.6819186,5.6819186 0 0 0 4.063144,0.79828 c 0.13934,-0.0253 0.171303,0.19225 0.03213,0.21755 a 5.9100649,5.9100649 0 0 1 -4.226381,-0.83928 c -0.119373,-0.0765 0.01238,-0.25263 0.131107,-0.17655 z"
         fill="#ffffff"
         id="path20"
         style="stroke-width:0.180153" /><path
         d="m 69.458965,111.99391 a 1.6686807,1.6686807 0 0 0 0.781616,1.37702 c 0.120285,0.0749 -0.0116,0.251 -0.131107,0.17655 a 1.8698887,1.8698887 0 0 1 -0.868051,-1.52143 0.11364623,0.11364623 0 0 1 0.09271,-0.12484 0.11050795,0.11050795 0 0 1 0.124835,0.0927 z"
         fill="#ffffff"
         id="path21"
         style="stroke-width:0.180153" /><path
         d="M 71.979615,73.635569 A 1.7583341,1.7583341 0 0 0 71.74874,70.949271 l 2.870214,-13.89103 -3.096629,0.976906 -2.309253,13.438474 a 1.7678678,1.7678678 0 0 0 2.766543,2.161948 z"
         fill="#ffb6b6"
         id="path22"
         style="stroke-width:0.180153" /><path
         d="m 78.613962,36.504266 -1.918207,-1.447964 c 0,0 -1.692161,-0.11983 -1.991855,2.931777 -0.299694,3.051607 -2.176159,14.763604 -2.176159,14.763604 l -2.93524,13.594899 4.063167,0.891844 3.143859,-14.671296 3.147079,-10.121733 z"
         fill="#e6e6e6"
         id="path23"
         style="stroke-width:0.180153" /><path
         d="m 77.152609,61.659721 -9.201348,-7.154523 a 0.68613258,0.68613258 0 0 1 -0.120355,-0.961739 l 6.260514,-8.051573 a 0.68613078,0.68613078 0 0 1 0.961735,-0.120342 l 9.201339,7.154522 a 0.68613078,0.68613078 0 0 1 0.120357,0.961735 l -6.260514,8.051574 a 0.68613078,0.68613078 0 0 1 -0.961728,0.120346 z"
         fill="#3f3d56"
         id="path24"
         style="stroke-width:0.180153" /><path
         d="m 77.102035,60.919373 -8.420796,-6.547602 a 0.60920884,0.60920884 0 0 1 -0.106861,-0.853917 l 5.675436,-7.299113 a 0.60921064,0.60921064 0 0 1 0.853917,-0.106862 l 8.420796,6.547603 a 0.60921064,0.60921064 0 0 1 0.106861,0.853917 l -5.675436,7.299113 a 0.60921064,0.60921064 0 0 1 -0.853917,0.106861 z"
         fill="#ffffff"
         id="path25"
         style="stroke-width:0.180153" /><path
         d="m 69.785198,54.186099 a 0.15228735,0.15228735 0 0 1 -0.0267,-0.213464 l 2.863091,-3.68219 a 0.15211852,0.15211852 0 1 1 0.240177,0.186749 l -2.863093,3.68219 a 0.15229996,0.15229996 0 0 1 -0.213473,0.02671 z"
         fill="#e4e4e4"
         id="path26"
         style="stroke-width:0.180153" /><path
         d="m 70.259728,54.555071 a 0.15230176,0.15230176 0 0 1 -0.02671,-0.213482 L 73.096106,50.6594 a 0.15212563,0.15212563 0 1 1 0.240188,0.186758 l -2.863093,3.682198 a 0.15230176,0.15230176 0 0 1 -0.213473,0.02671 z"
         fill="#e4e4e4"
         id="path27"
         style="stroke-width:0.180153" /><path
         d="m 72.356268,52.837992 a 0.15230176,0.15230176 0 0 1 -0.02671,-0.213481 L 73.57063,51.02837 a 0.15212703,0.15212703 0 1 1 0.24019,0.18676 l -1.241078,1.59614 a 0.15230176,0.15230176 0 0 1 -0.213474,0.02672 z"
         fill="#e4e4e4"
         id="path28"
         style="stroke-width:0.180153" /><path
         d="m 72.99607,55.970233 a 0.15228915,0.15228915 0 0 1 -0.0267,-0.213464 l 4.51993,-5.813033 a 0.15211852,0.15211852 0 1 1 0.240177,0.186749 l -4.519932,5.813033 a 0.15230176,0.15230176 0 0 1 -0.213475,0.02672 z"
         fill="#e4e4e4"
         id="path29"
         style="stroke-width:0.180153" /><path
         d="m 73.4706,56.339205 a 0.15230176,0.15230176 0 0 1 -0.02672,-0.213482 l 4.519932,-5.813032 a 0.15212624,0.15212624 0 1 1 0.240188,0.18676 l -4.519932,5.813032 a 0.15230176,0.15230176 0 0 1 -0.213473,0.02672 z"
         fill="#e4e4e4"
         id="path30"
         style="stroke-width:0.180153" /><path
         d="m 74.547761,57.176753 a 0.15228915,0.15228915 0 0 1 -0.0267,-0.213465 l 4.519934,-5.813033 a 0.15211835,0.15211835 0 1 1 0.240175,0.186751 l -4.519932,5.813032 a 0.15230176,0.15230176 0 0 1 -0.213473,0.02671 z"
         fill="#e4e4e4"
         id="path31"
         style="stroke-width:0.180153" /><path
         d="m 75.022289,57.545724 a 0.15230176,0.15230176 0 0 1 -0.02671,-0.213482 l 4.519932,-5.813033 a 0.15212624,0.15212624 0 1 1 0.240188,0.18676 l -4.519932,5.813033 a 0.15230356,0.15230356 0 0 1 -0.213475,0.02672 z"
         fill="#e4e4e4"
         id="path32"
         style="stroke-width:0.180153" /><path
         d="m 76.09945,58.383281 a 0.15228915,0.15228915 0 0 1 -0.0267,-0.213464 l 4.519932,-5.813033 a 0.15211852,0.15211852 0 1 1 0.240177,0.186749 l -4.519932,5.813033 a 0.15230176,0.15230176 0 0 1 -0.213475,0.02671 z"
         fill="#e4e4e4"
         id="path33"
         style="stroke-width:0.180153" /><path
         d="m 76.57398,58.752235 a 0.15230176,0.15230176 0 0 1 -0.02672,-0.213482 l 4.519932,-5.813012 a 0.15212701,0.15212701 0 0 1 0.24019,0.186757 l -4.519933,5.813033 a 0.15230176,0.15230176 0 0 1 -0.213474,0.0267 z"
         fill="#e4e4e4"
         id="path34"
         style="stroke-width:0.180153" /><circle
         cx="69.019684"
         cy="65.440727"
         r="0.062455609"
         fill="#ffffff"
         id="circle34"
         style="stroke-width:0.180153" /><path
         d="m 78.120902,22.466184 a 15.038853,15.038853 0 0 1 -1.073021,3.42475 c -2.823602,5.97329 5.217484,4.026306 8.091097,4.026306 3.141876,0 6.147997,1.652139 5.688868,-5.68887 -0.196118,-3.135752 -2.546993,-5.688871 -5.688868,-5.688871 -2.683688,0 -6.456907,1.192845 -7.018076,3.926685 z"
         fill="#2f2e41"
         id="path35"
         style="stroke-width:0.180153" /><polygon
         points="453.34,508.085 438.481,508.085 431.41,450.772 453.34,450.772 "
         fill="#ffb6b6"
         id="polygon35"
         transform="matrix(0.18015349,0,0,0.18015349,6.3968249,18.539499)" /><path
         d="M 89.480484,114.71085 H 87.56079 l -0.342652,-1.81242 -0.877596,1.81242 h -5.091493 a 1.1445151,1.1445151 0 0 1 -0.650354,-2.08636 l 4.065911,-2.80806 v -1.83229 l 4.27663,0.25525 z"
         fill="#2f2e41"
         id="path36"
         style="stroke-width:0.180153" /><polygon
         points="541.617,489.333 529.693,498.2 489.82,456.429 507.418,443.342 "
         fill="#ffb6b6"
         id="polygon36"
         transform="matrix(0.18015349,0,0,0.18015349,6.3968249,18.539499)" /><path
         d="m 107.87236,109.57331 -1.54046,1.14551 -1.35647,-1.24991 0.37727,1.97805 -4.08568,3.03817 a 1.1445151,1.1445151 0 0 1 -1.766835,-1.28612 l 1.587085,-4.67953 -1.093347,-1.47033 3.584107,-2.3471 z"
         fill="#2f2e41"
         id="path37"
         style="stroke-width:0.180153" /><polygon
         points="404.675,244.313 475.21,233.327 461.183,191.129 404.675,191.129 "
         fill="#ffb6b6"
         id="polygon37"
         transform="matrix(0.18015349,0,0,0.18015349,6.3968249,18.539499)" /><path
         d="m 91.184161,56.800865 c 0,0 5.07899,4.388011 2.735606,16.897136 L 91.058866,85.954854 98.853421,99.487245 94.890045,101.64909 85.284657,88.298793 80.889263,77.988598 78.564308,59.918956 Z"
         fill="#2f2e41"
         id="path38"
         style="stroke-width:0.180153" /><polygon
         points="425.246,372.562 430.21,450.327 454.854,458.812 459.521,379.134 426.942,346.301 "
         fill="#2f2e41"
         id="polygon38"
         transform="matrix(0.18015349,0,0,0.18015349,6.3968249,18.539499)" /><path
         d="m 81.946957,31.491769 4.911885,0.191626 1.957598,3.249529 4.466336,0.871907 -2.666275,13.488625 0.49032,7.677575 -4.447269,-0.02712 a 13.008305,13.008305 0 0 0 -8.703935,3.269882 v 0 l 0.133041,-9.966082 -1.912909,-7.439565 0.429927,-7.800857 3.592967,-0.449122 z"
         fill="#e6e6e6"
         id="path39"
         style="stroke-width:0.180153" /><circle
         cx="84.668236"
         cy="25.292982"
         r="4.6228485"
         fill="#ffb6b6"
         id="circle39"
         style="stroke-width:0.180153" /><path
         d="m 81.528846,20.580625 a 5.2953272,5.2953272 0 0 1 8.050769,4.621424 c -2.355581,0.591417 -4.830275,1.044009 -7.342323,0.14146 L 81.644047,23.891602 81.2943,25.344585 c -0.765005,0.312687 -1.531994,0.577253 -2.298978,-0.003 a 5.4068296,5.4068296 0 0 1 2.533524,-4.76094 z"
         fill="#2f2e41"
         id="path40"
         style="stroke-width:0.180153" /><path
         d="m 92.42777,66.291235 0.62317,5.655474 a 0.69029413,0.69029413 0 0 0 0.659793,0.487351 h 2.872578 a 0.69031755,0.69031755 0 0 0 0.659866,-0.487351 l 0.516154,-4.334644 a 1.0483708,1.0483708 0 1 0 0.270321,-1.972106 0.6841581,0.6841581 0 0 0 -0.523755,-0.242126 h -4.418261 a 0.69042024,0.69042024 0 0 0 -0.659866,0.893402 z m 5.421766,1.027702 0.316153,-1.027702 a 0.68320329,0.68320329 0 0 0 0.01045,-0.365405 c 0.01353,-7.21e-4 0.02624,-0.004 0.03991,-0.004 a 0.74853775,0.74853775 0 1 1 0,1.497075 0.73907249,0.73907249 0 0 1 -0.366513,-0.09994 z"
         fill="#6c63ff"
         id="path41"
         style="stroke-width:0.180153" /><path
         d="m 96.759409,72.437955 a 1.7583287,1.7583287 0 0 1 0.244521,-2.68509 L 94.204334,55.84744 97.29596,56.840066 99.5369,70.290101 a 1.7678678,1.7678678 0 0 1 -2.777491,2.147854 z"
         fill="#ffb6b6"
         id="path42"
         style="stroke-width:0.180153" /><path
         d="m 91.364578,37.252802 1.918206,-1.447964 c 0,0 1.692162,-0.11983 1.991854,2.931777 0.299693,3.051607 2.176161,14.763605 2.176161,14.763605 l 2.935241,13.594898 -4.06317,0.891846 -3.143858,-14.671296 -3.147078,-10.121735 z"
         fill="#e6e6e6"
         id="path43"
         style="stroke-width:0.180153" /><circle
         cx="74.809189"
         cy="48.82513"
         r="1.0858392"
         fill="#6c63ff"
         id="circle43"
         style="stroke-width:0.180153" /><polygon
         points="187.545,578.006 200.106,578.005 206.082,529.556 187.543,529.557 "
         fill="#ffb6b6"
         id="polygon43"
         transform="matrix(0.18015349,0,0,0.18015349,6.3968249,18.539499)" /><path
         d="m 39.606509,121.93042 0.63694,-3e-5 2.486714,-1.01129 1.332805,1.01114 h 1.8e-4 a 2.8401558,2.8401558 0 0 1 2.840002,2.83996 v 0.0923 l -7.296506,1.8e-4 z"
         fill="#2f2e41"
         id="path44"
         style="stroke-width:0.180153" /><polygon
         points="236.221,570.09 248.474,572.857 264.975,526.914 246.891,522.831 "
         fill="#ffb6b6"
         id="polygon44"
         transform="matrix(0.18015349,0,0,0.18015349,6.3968249,18.539499)" /><path
         d="m 48.552594,120.39542 0.621301,0.14028 2.648399,-0.43868 1.077336,1.27989 1.8e-4,4e-5 a 2.840154,2.840154 0 0 1 2.144664,3.39579 l -0.02033,0.09 -7.117342,-1.60699 z"
         fill="#2f2e41"
         id="path45"
         style="stroke-width:0.180153" /><path
         d="m 36.04103,77.772194 2.046286,22.926296 c 0,0 -0.766719,13.7639 1.70734,18.60731 h 3.588066 l 1.776519,-19.864278 0.223082,-13.333024 7.692443,11.248574 -4.899554,21.623958 4.416063,0.39479 7.95066,-23.467027 -8.734816,-22.030024 z"
         fill="#2f2e41"
         id="path46"
         style="stroke-width:0.180153" /><circle
         cx="38.184139"
         cy="35.98531"
         r="5.2772326"
         fill="#ffb8b8"
         id="circle46"
         style="stroke-width:0.180153" /><path
         d="m 47.4611,46.291483 -4.329373,-1.857608 -2.107576,-2.23544 -5.265013,0.849127 -1.396924,2.395194 -4.52206,4.204839 5.298112,23.955609 -0.160376,5.23213 c 0,0 3.390937,1.526564 18.096869,-1.98821 0.176346,-0.04215 -0.19281,-0.226725 -0.19281,-0.226725 z"
         fill="#3f3d56"
         id="path47"
         style="stroke-width:0.180153" /><path
         d="M 32.696623,38.979727 Q 32.641467,38.90446 32.58739,38.82792 c -0.01452,0.03064 -0.02605,0.0623 -0.04263,0.09222 z"
         fill="#2f2e41"
         id="path48"
         style="stroke-width:0.180153" /><path
         d="m 43.433596,32.12523 a 3.3672489,3.3672489 0 0 0 -1.761872,-1.70209 3.2147526,3.2147526 0 0 0 -2.410238,0.0021 c -0.697664,-0.440783 -1.472838,-0.790225 -2.289199,-0.833507 -0.816362,-0.04328 -1.679496,0.259585 -2.18258,0.926268 a 3.5626289,3.5626289 0 0 1 -0.381322,0.49539 c -0.404396,0.374496 -1.018964,0.320477 -1.556475,0.243902 q 0.361629,0.309938 0.72344,0.619876 -0.43774,0.114354 -0.875573,0.228718 0.510879,0.309835 1.021667,0.619672 c -0.988683,0.593425 -1.438048,1.888655 -1.319352,3.065001 0.112296,1.113722 0.649993,2.132144 1.292765,3.037347 0.256409,-0.541095 0.201161,-1.188547 0.196926,-1.797968 -0.0044,-0.643915 0.109502,-1.375112 0.625474,-1.734981 0.348066,-0.242753 0.795632,-0.253591 1.215348,-0.251294 a 55.836362,55.836362 0 0 1 6.334051,0.395437 1.7830548,1.7830548 0 0 1 0.810954,0.235206 c 0.46487,0.317143 0.555445,0.971626 0.60213,1.545807 a 11.200587,11.200587 0 0 0 0.357531,-2.903566 5.3518197,5.3518197 0 0 0 -0.403675,-2.191326 z"
         fill="#2f2e41"
         id="path49"
         style="stroke-width:0.180153" /><circle
         cx="45.07658"
         cy="85.537659"
         r="8.3060074"
         fill="#ffffff"
         id="circle49"
         style="stroke-width:0.180153" /><path
         d="m 45.076583,77.047072 a 8.5361624,8.5361624 0 0 0 -1.275461,0.09598 c -0.215943,0.03138 -0.426298,0.07198 -0.634939,0.121817 A 8.4863517,8.4863517 0 0 0 39.568806,91.99419 c 0.142129,0.119982 0.286061,0.236265 0.435579,0.347008 a 8.4887514,8.4887514 0 1 0 5.072198,-15.294131 z m 0,16.612015 A 8.0746181,8.0746181 0 0 1 40.277557,92.084632 C 40.126228,91.97389 39.980412,91.859453 39.838284,91.737635 a 8.1166353,8.1166353 0 0 1 3.621445,-14.158984 c 0.206659,-0.04245 0.413407,-0.07568 0.623852,-0.101516 a 8.0351321,8.0351321 0 0 1 0.993006,-0.06091 8.1214295,8.1214295 0 0 1 0,16.242859 z"
         fill="#3f3d56"
         id="path50"
         style="stroke-width:0.180153" /><rect
         x="-49.691029"
         y="-83.876457"
         width="9.228898"
         height="1.1074684"
         rx="0.54046047"
         transform="scale(-1)"
         fill="#6c63ff"
         id="rect50"
         style="stroke-width:0.180153" /><rect
         x="-49.691029"
         y="-86.091385"
         width="9.228898"
         height="1.1074684"
         rx="0.54046047"
         transform="scale(-1)"
         fill="#6c63ff"
         id="rect51"
         style="stroke-width:0.180153" /><rect
         x="-49.691029"
         y="-88.306328"
         width="9.228898"
         height="1.1074684"
         rx="0.54046047"
         transform="scale(-1)"
         fill="#6c63ff"
         id="rect52"
         style="stroke-width:0.180153" /><polygon
         points="730.52,576.442 717.349,576.441 711.083,525.639 730.522,525.64 "
         fill="#9e616a"
         id="polygon52"
         transform="matrix(0.18015349,0,0,0.18015349,6.3968249,18.539499)"
         style="fill:#ffb6b6;fill-opacity:1" /><polygon
         points="668.209,576.442 655.039,576.441 648.773,525.639 668.212,525.64 "
         fill="#9e616a"
         id="polygon53"
         transform="matrix(0.18015349,0,0,0.18015349,6.3968249,18.539499)"
         style="fill:#ffb6b6;fill-opacity:1" /><path
         d="m 126.86063,124.86276 -7.29651,-1.8e-4 v -0.0924 a 2.8401558,2.8401558 0 0 1 2.84001,-2.83996 h 1.8e-4 l 1.3328,-1.01113 2.48671,1.01129 0.63694,2e-5 z"
         fill="#2f2e41"
         id="path53"
         style="stroke-width:0.180153" /><path
         d="m 138.39045,124.86276 -7.2965,-1.8e-4 v -0.0924 a 2.8401558,2.8401558 0 0 1 2.84,-2.83996 h 1.8e-4 l 1.3328,-1.01113 2.48672,1.01129 0.63694,2e-5 z"
         fill="#2f2e41"
         id="path54"
         style="stroke-width:0.180153" /><path
         d="m 124.44957,68.222003 -3.60607,21.957843 0.98138,3.272101 -1.28779,2.317415 1.89114,20.351978 -0.76766,1.69006 2.14482,1.32276 h 4.3644 l 0.23164,-18.42479 1.07808,-2.705156 v -1.490876 l 2.19467,-11.235017 0.40409,15.733919 0.63838,2.70939 -0.53625,1.92911 0.70067,1.3515 1.8612,12.53339 h 4.89393 l -0.3785,-2.91587 v 0 a 2.1550177,2.1550177 0 0 0 1.13146,-2.38478 l -0.28059,-1.27802 0.63861,-3.77897 1.16292,-21.082216 -0.32788,-17.010694 -5.72499,-4.377825 z"
         fill="#2f2e41"
         id="path55"
         style="stroke-width:0.180153" /><circle
         id="ab6171fa-7d69-4734-b81c-8dff60f9761b"
         data-name="Ellipse 219"
         cx="132.71664"
         cy="35.47863"
         r="4.5468564"
         fill="#9e616a"
         style="fill:#ffb6b6;fill-opacity:1;stroke-width:0.180153" /><path
         d="m 122.78231,76.935516 a 1.9462144,1.9462144 0 0 0 -0.31164,-2.967968 l 1.76811,-6.686355 -3.40647,1.1458 -1.15678,6.173813 a 1.9567588,1.9567588 0 0 0 3.10677,2.33471 z"
         fill="#9e616a"
         id="path56"
         style="fill:#ffb6b6;fill-opacity:1;stroke-width:0.180153" /><path
         id="bc44dde2-a388-4b93-9ca4-c442728432a9-361"
         data-name="Path 1101"
         d="m 124.64306,44.833103 -0.73121,-0.151735 -0.62358,0.345277 c 0,0 -1.74188,2.322501 -1.74188,4.451458 0,2.128956 -2.12896,22.644376 -2.12896,22.644376 l 3.87083,1.741876 3.09667,-16.063959 z"
         fill="#e6e6e6"
         style="stroke-width:0.180153" /><path
         id="bf427902-b9bf-4946-b5d7-5c1c7e04535e-362"
         data-name="Path 1104"
         d="m 136.69847,32.144957 c 0,0 1.18922,-2.273427 -1.4271,-2.480103 0,0 -2.23043,-2.023287 -4.50386,-0.369885 0,0 -1.24005,0 -1.91816,1.403262 0,0 -0.97529,-0.369886 -1.18962,0.620025 0,0 -0.71365,2.066757 0,3.926835 0.71365,1.860077 0.9507,2.066753 0.9507,2.066753 0,0 -1.17267,-3.899754 1.68173,-4.106429 2.8544,-0.206676 6.04855,-1.990489 6.28644,0.282936 0.23788,2.273425 0.59585,2.833578 0.59585,2.833578 0,0 2.25936,-3.246929 -0.47598,-4.176972 z"
         fill="#2f2e41"
         style="stroke-width:0.180153" /><path
         d="m 153.30789,95.769362 a 1.3914065,1.3914065 0 0 1 -0.93015,-0.354854 L 138.61747,83.165654 A 1.4032516,1.4032516 0 0 1 138.5025,81.18678 l 8.81494,-9.902636 a 1.4031849,1.4031849 0 0 1 1.97896,-0.115058 l 13.76037,12.24903 a 1.4015401,1.4015401 0 0 1 0.11497,1.978698 l -8.81503,9.902635 a 1.3919181,1.3919181 0 0 1 -0.96569,0.46745 c -0.0278,0.0018 -0.0555,0.0025 -0.0831,0.0025 z"
         fill="#ffffff"
         id="path57"
         style="stroke-width:0.180153" /><path
         d="m 153.30772,95.859438 a 1.4807446,1.4807446 0 0 1 -0.98987,-0.377549 L 138.55757,83.233035 a 1.493685,1.493685 0 0 1 -0.12236,-2.106246 l 8.81494,-9.902638 a 1.4938327,1.4938327 0 0 1 2.10616,-0.122446 l 13.76037,12.249028 a 1.4919429,1.4919429 0 0 1 0.12236,2.106072 l -8.81504,9.902637 a 1.4824344,1.4824344 0 0 1 -1.0277,0.497534 c -0.0297,0.0016 -0.0591,0.0025 -0.0886,0.0025 z m -4.94269,-24.77436 a 1.1284634,1.1284634 0 0 0 -0.8457,0.378692 l -8.81494,9.902635 a 1.1327133,1.1327133 0 0 0 0.0928,1.597456 l 13.76028,12.248853 a 1.1311838,1.1311838 0 0 0 1.59737,-0.09289 l 8.81504,-9.902638 a 1.1313765,1.1313765 0 0 0 -0.0928,-1.597278 L 149.1167,71.370879 a 1.1268475,1.1268475 0 0 0 -0.75168,-0.285801 z"
         fill="#3f3d56"
         id="path58"
         style="stroke-width:0.180153" /><path
         d="m 158.29765,86.391 a 0.60396818,0.60396818 0 0 1 -0.40297,-0.153237 L 147.0934,76.622775 a 0.60651735,0.60651735 0 1 1 0.80655,-0.906046 l 10.80137,9.61499 A 0.60631558,0.60631558 0 0 1 158.29765,86.391 Z"
         fill="#6c63ff"
         id="path59"
         style="stroke-width:0.180153" /><path
         d="m 156.23741,88.705374 a 0.60397538,0.60397538 0 0 1 -0.40297,-0.153237 l -10.80128,-9.614988 a 0.6064512,0.6064512 0 1 1 0.80655,-0.905869 l 10.80138,9.614988 a 0.60618587,0.60618587 0 0 1 -0.40367,1.059106 z"
         fill="#6c63ff"
         id="path60"
         style="stroke-width:0.180153" /><path
         d="m 154.17717,91.0201 a 0.60351419,0.60351419 0 0 1 -0.40306,-0.153412 l -10.80138,-9.614813 a 0.60654617,0.60654617 0 1 1 0.80664,-0.906044 l 10.80129,9.614988 a 0.60627594,0.60627594 0 0 1 -0.4035,1.059281 z"
         fill="#6c63ff"
         id="path61"
         style="stroke-width:0.180153" /><path
         d="m 141.82495,77.330157 a 1.9462162,1.9462162 0 0 1 1.06474,-2.787876 l 0.0117,-6.916171 2.997,1.983652 -0.47058,6.263596 a 1.9567606,1.9567606 0 0 1 -3.60287,1.456799 z"
         fill="#9e616a"
         id="path62"
         style="fill:#ffb6b6;fill-opacity:1;stroke-width:0.180153" /><path
         id="f348f81f-b961-4ae4-bc6b-758f6acfb12a-363"
         data-name="Path 1100"
         d="m 142.10197,46.728355 1.33893,-1.290544 0.98357,0.709911 c 0,0 0.96771,1.16125 1.74188,4.645 0.77416,3.483751 0,22.644375 0,22.644375 l -4.25792,-0.580625 0.58062,-10.064167 -1.74187,-8.515834 z"
         fill="#e6e6e6"
         style="stroke-width:0.180153" /><path
         d="m 144.07904,45.75261 -4.51093,-2.15475 -3.06261,-2.84066 -5.58476,-0.0418 -1.80153,2.341995 -4.75608,1.615584 0.7927,16.399765 -0.54046,1.261074 c 0,0 0.37653,0.340152 0.54857,0.530383 0.17204,0.190231 -0.23772,1.782891 -0.23772,1.782891 l -0.23103,1.732716 0.64079,0.457851 -0.83303,0.983999 -0.20682,1.551078 c 0,0 14.5411,-3.6142 17.28865,2.373048 0.14516,0.316332 -0.2123,-2.775252 -0.2123,-2.775252 l -0.35747,-2.263268 0.35463,-2.031436 0.54046,-0.54046 -0.90644,-0.906443 0.58112,-4.300984 z"
         fill="#3f3d56"
         id="path63"
         style="stroke-width:0.180153" /><path
         d="m 41.780725,82.109558 a 2.0896904,2.0896904 0 0 0 -1.531951,-2.814357 l -1.002055,-7.358134 -2.905411,2.539725 1.396998,6.598042 a 2.1010149,2.1010149 0 0 0 4.042419,1.034721 z"
         fill="#ffb8b8"
         id="path64"
         style="stroke-width:0.180153" /><path
         id="e1bf2fad-858c-4bea-9733-320cc40b59f5-364"
         data-name="Path 1101"
         d="m 30.397702,49.513029 -0.787518,0.15085 -0.476019,0.599298 c 0,0 -0.770084,3.020526 0.107164,5.131406 0.877249,2.11088 7.219857,23.329326 7.219857,23.329326 l 4.555712,0.132085 -3.548871,-17.20354 z"
         fill="#3f3d56"
         style="stroke-width:0.180153" /><path
         d="m 48.357571,81.03018 a 2.089685,2.089685 0 0 1 0.372132,-3.182606 l -1.813728,-7.201157 3.642852,1.273284 1.163858,6.643132 a 2.1010149,2.1010149 0 0 1 -3.365114,2.467347 z"
         fill="#ffb8b8"
         id="path65"
         style="stroke-width:0.180153" /><path
         id="ff35f29e-9865-4218-824f-c5cf71e1b056-365"
         data-name="Path 1101"
         d="m 46.765951,46.53999 0.786973,-0.153658 0.665145,0.378596 c 0,0 1.840774,2.515582 1.813838,4.801332 -0.02694,2.28575 1.999248,24.338998 1.999248,24.338998 l -4.17794,1.821184 -3.121482,-17.286198 z"
         fill="#3f3d56"
         style="stroke-width:0.180153" /></g></g></svg>
