<?xml version="1.0" encoding="UTF-8" standalone="no"?>
<!-- Created with Inkscape (http://www.inkscape.org/) -->

<svg
   width="49.861797mm"
   height="50.000004mm"
   viewBox="0 0 49.861797 50.000004"
   version="1.1"
   id="svg1"
   xml:space="preserve"
   xmlns="http://www.w3.org/2000/svg"
   xmlns:svg="http://www.w3.org/2000/svg"><defs
     id="defs1" /><g
     id="layer1"><path
       style="fill:#020202;stroke:none;stroke-width:0.368923"
       d="M 25.327362,50 V 30.575447 h -3.709213 l -1.433128,-0.100322 -0.226253,-1.36384 v -3.51399 l 0.226253,-1.266229 1.433128,-0.100322 h 3.709213 c 0,-4.288343 -0.510977,-9.564302 4.002044,-11.883214 0.700618,-0.359996 1.470563,-0.615242 2.245047,-0.761303 2.200251,-0.414954 4.43354,0.04665 6.637538,0.05272 v 5.661427 c -1.580762,0 -4.372046,-0.535456 -5.629342,0.637333 -1.355651,1.264526 -0.715364,4.609698 -0.715364,6.293035 h 6.149483 l -0.780884,6.344703 h -5.368599 v 18.448442 c 4.493041,-1.436681 8.373383,-3.750461 11.606954,-7.223198 1.95307,-2.097532 3.536184,-4.662143 4.596442,-7.320812 C 52.39384,23.639288 48.707512,10.944768 38.992879,4.3209264 36.232269,2.4386297 33.155811,1.2577558 29.915071,0.52299079 27.207156,-0.09097012 24.260278,-0.14531023 21.52054,0.2602119 17.998202,0.78157245 14.559985,1.9445853 11.564238,3.8941802 8.6151225,5.8134264 6.0955283,8.2307268 4.1209614,11.150895 -3.2122027,21.995835 -0.45925045,37.28836 10.002465,45.072763 14.44079,48.375253 19.827804,50 25.327362,50 Z"
       id="path1" /></g></svg>
