<?xml version="1.0" encoding="UTF-8" standalone="no"?>
<!-- Created with Inkscape (http://www.inkscape.org/) -->

<svg
   width="50.000107mm"
   height="85.000031mm"
   viewBox="0 0 50.000107 85.000031"
   version="1.1"
   id="svg1"
   inkscape:version="1.3.2 (091e20e, 2023-11-25, custom)"
   sodipodi:docname="drawing.svg"
   xml:space="preserve"
   xmlns:inkscape="http://www.inkscape.org/namespaces/inkscape"
   xmlns:sodipodi="http://sodipodi.sourceforge.net/DTD/sodipodi-0.dtd"
   xmlns="http://www.w3.org/2000/svg"
   xmlns:svg="http://www.w3.org/2000/svg"><sodipodi:namedview
     id="namedview1"
     pagecolor="#ffffff"
     bordercolor="#000000"
     borderopacity="0.25"
     inkscape:showpageshadow="2"
     inkscape:pageopacity="0.0"
     inkscape:pagecheckerboard="0"
     inkscape:deskcolor="#d1d1d1"
     inkscape:document-units="mm"
     showguides="true"
     inkscape:zoom="1.4142136"
     inkscape:cx="162.281"
     inkscape:cy="490.73208"
     inkscape:window-width="2560"
     inkscape:window-height="1334"
     inkscape:window-x="-11"
     inkscape:window-y="-11"
     inkscape:window-maximized="1"
     inkscape:current-layer="layer1"
     inkscape:export-bgcolor="#ffffff00" /><defs
     id="defs1" /><g
     inkscape:label="Layer 1"
     inkscape:groupmode="layer"
     id="layer1"><path
       id="path3"
       style="fill:#000000;fill-opacity:1;stroke-width:0.264485"
       d="M 25.000066,4.2145313e-5 C 11.192984,0.02512315 -0.02503904,11.23846 4.1974877e-5,25.045542 0.02512097,38.852625 25.000066,85.000026 25.000066,85.000026 c 0,0 25.025107,-46.238351 25.000024,-60.045435 C 49.975009,11.147509 38.807148,-0.02503886 25.000066,4.2145313e-5 Z M 25.000067,12.495404 A 12.5,12.5 0 0 1 37.500079,24.995416 12.5,12.5 0 0 1 25.000067,37.495428 12.5,12.5 0 0 1 12.500055,24.995416 12.5,12.5 0 0 1 25.000067,12.495404 Z"
       inkscape:export-filename="..\..\OneDrive\Masaüstü\path3.svg"
       inkscape:export-xdpi="96"
       inkscape:export-ydpi="96" /></g></svg>
