<?xml version="1.0" encoding="UTF-8" standalone="no"?>
<!-- Created with Inkscape (http://www.inkscape.org/) -->

<svg
   width="210mm"
   height="297mm"
   viewBox="0 0 210 297"
   version="1.1"
   id="svg1"
   xmlns="http://www.w3.org/2000/svg"
   xmlns:svg="http://www.w3.org/2000/svg">
  <defs
     id="defs1" />
  <g
     id="layer1">
    <path
       id="rect1"
       style="fill:#000000;stroke:none;stroke-width:0.289061;stroke-linejoin:bevel;stroke-dasharray:1.15624, 0.289061"
       d="M 5.7965454,0 C 3.8637347,0 2.1625417,0.94049893 1.1105265,2.3864176 L 12.209591,10.906828 40.001176,31.138668 67.788627,10.906828 78.888725,2.3853841 C 77.836646,0.94007774 76.13607,0 74.203739,0 Z M 0.18603516,4.3578735 C 0.0690197,4.8184031 0,5.2986067 0,5.7965454 V 44.203503 c 0,1.399973 0.49165181,2.680696 1.3120646,3.680396 L 14.680241,35.497575 a 1.2664704,0.65963012 0 0 1 0.01499,-0.01395 L 27.263452,24.440885 9.5828776,11.57087 a 1.5224821,0.65695355 0 0 1 -0.018087,-0.01344 z m 79.62873084,0.00207 -9.376688,7.1974935 a 1.5224821,0.65695355 0 0 1 -0.01809,0.01344 L 52.73683,24.442959 65.302471,35.483629 a 1.2664704,0.65963012 0 0 1 0.01499,0.01395 L 78.68667,47.884932 C 79.507525,46.885069 79.999768,45.604 79.999768,44.203503 V 5.7965454 c 0,-0.497171 -0.06834,-0.9767165 -0.185002,-1.4366048 z M 28.87369,25.613424 16.884241,36.150765 2.8246338,49.178394 c 0.8688344,0.518596 1.882512,0.821655 2.9719116,0.821655 H 74.203739 c 1.089655,0 2.103539,-0.303351 2.972429,-0.822172 L 63.117594,36.150765 51.127112,25.614974 41.31014,32.760791 a 1.5224821,0.65695355 0 0 1 -2.617411,0 z" />
  </g>
</svg>
