<?xml version="1.0" encoding="UTF-8" standalone="no"?>
<!-- Created with Inkscape (http://www.inkscape.org/) -->

<svg
   width="50mm"
   height="35.022755mm"
   viewBox="0 0 50 35.022755"
   version="1.1"
   id="svg1"
   xml:space="preserve"
   xmlns="http://www.w3.org/2000/svg"
   xmlns:svg="http://www.w3.org/2000/svg"><defs
     id="defs1" /><g
     id="layer1"><path
       style="fill:#010101;stroke:none;stroke-width:0.367261"
       d="M 2.6757868,0.40923194 C 4.012512,2.3068647 6.0863752,3.9169906 7.7286921,5.5593105 11.276321,9.1069389 14.8715,12.604947 18.417531,16.150977 c 1.797739,1.797738 3.796095,4.760642 6.607646,4.760642 2.811552,0 4.809909,-2.962904 6.607645,-4.760642 C 35.17886,12.604939 38.774035,9.1069389 42.321663,5.5593105 43.963983,3.9169906 46.037846,2.306861 47.374568,0.40923194 45.898673,-0.07083758 44.440652,0.0205481 42.904691,0.0205481 H 36.880071 15.793907 7.8258633 c -1.7411599,0 -3.4772762,-0.15543241 -5.1500765,0.38868384 M 0.53801905,2.5469986 C -0.37373402,5.3500045 0.14933373,8.8479608 0.14933373,11.77827 v 13.409635 c 0,2.369075 -0.35003067,5.016803 0.38868532,7.287845 L 4.6192118,28.491727 11.907056,21.301052 14.627852,18.580258 15.482299,17.511376 14.627852,16.442491 11.907056,13.721697 4.6192118,6.5310219 0.53801905,2.5469986 m 48.87714595,0 -11.174695,11.0775244 -2.720798,2.720798 -0.951619,1.166055 0.854449,1.068882 2.720798,2.720794 7.287845,7.190675 4.081193,3.984023 c 0.782179,-2.404685 0.388684,-5.263797 0.388684,-7.773702 V 10.126358 5.170623 c 0,-0.8650477 0.05962,-1.894401 -0.485857,-2.6236244 M 2.6757868,34.613517 c 1.4758923,0.480077 2.9339204,0.388687 4.4698777,0.388687 h 6.0246185 21.086164 7.968046 c 1.741154,0 3.47728,0.155436 5.150075,-0.388687 -0.93572,-1.328367 -2.349273,-2.446443 -3.498166,-3.595336 -2.44602,-2.446024 -4.926361,-4.858818 -7.385015,-7.288219 -0.944806,-0.933564 -1.878767,-1.878392 -2.817968,-2.817594 -0.327715,-0.327715 -0.797016,-1.016242 -1.263225,-1.132465 -0.57233,-0.142674 -1.57431,1.253224 -1.943427,1.617948 -1.311568,1.295967 -2.897318,2.23277 -4.761391,2.413162 -1.998998,0.193443 -3.9234,-0.510729 -5.441591,-1.789945 -0.620312,-0.522672 -1.173936,-1.12072 -1.749083,-1.691654 -0.196575,-0.195133 -0.469342,-0.563008 -0.77737,-0.563008 -0.398487,0 -0.814599,0.600182 -1.068884,0.854448 l -2.720795,2.720795 c -2.540702,2.540538 -5.1338167,5.036646 -7.6765299,7.579362 -1.1797412,1.17974 -2.6345417,2.328548 -3.5953363,3.692506 z"
       id="path1" /></g></svg>
