<?xml version="1.0" encoding="UTF-8" standalone="no"?>
<!-- Created with Inkscape (http://www.inkscape.org/) -->

<svg
   width="50mm"
   height="38.147678mm"
   viewBox="0 0 50 38.147678"
   version="1.1"
   id="svg1"
   xml:space="preserve"
   xmlns="http://www.w3.org/2000/svg"
   xmlns:svg="http://www.w3.org/2000/svg"><defs
     id="defs1" /><g
     id="layer1"><path
       style="fill:#020202;stroke:none;stroke-width:0.497266"
       d="M 7.6748511,19.340546 C 7.9777558,12.303822 13.767122,6.9966392 19.384433,3.6839118 18.987264,2.8443574 17.789366,0.46972756 16.872352,0.18658918 16.171269,-0.02987575 14.710119,1.0469442 14.121699,1.3950703 11.588607,2.8937161 9.2229471,4.6112883 7.1490856,6.7099852 1.3600702,12.568323 -1.8651847,21.739716 1.1523716,29.734443 2.3483787,32.903147 4.543052,35.781985 7.6748511,37.192823 13.809664,39.956484 20.770754,36.493806 21.826467,29.734443 22.966397,22.435868 14.505335,15.457126 7.6748511,19.340546 m 28.0240559,0 c 0.898153,-4.767087 2.874487,-8.817574 6.578414,-12.0666212 1.593455,-1.3977605 3.373921,-2.4309253 5.131165,-3.590013 L 45.040256,0 c -2.20185,0.74974807 -4.33353,2.1835056 -6.183708,3.5689936 -5.576875,4.1761903 -10.155249,10.4581134 -10.645261,17.6135054 -0.476013,6.95096 2.341204,15.629458 10.250555,16.823081 1.286711,0.194182 2.53015,0.180458 3.815479,-0.01845 5.957815,-0.922095 9.223316,-7.990465 7.045098,-13.383829 -1.53166,-3.792465 -5.365527,-6.135309 -9.413328,-6.183206 -1.469914,-0.0174 -2.903333,0.224491 -4.210184,0.920474 z"
       id="path1" /></g></svg>
