<?xml version="1.0" encoding="UTF-8" standalone="no"?>
<!-- Created with Inkscape (http://www.inkscape.org/) -->

<svg
   width="49.925068mm"
   height="50mm"
   viewBox="0 0 49.925068 50"
   version="1.1"
   id="svg1"
   xml:space="preserve"
   xmlns="http://www.w3.org/2000/svg"
   xmlns:svg="http://www.w3.org/2000/svg"><defs
     id="defs1" /><g
     id="layer1"
     transform="matrix(0.99819094,0,0,0.99819094,-74.648058,0.10195955)"><path
       style="fill:#020202;stroke:none"
       d="M 98.424783,0.04144311 C 97.682148,0.13895035 96.783058,0.01606643 96.217194,0.61811209 95.666807,1.203692 95.862715,2.2900105 95.686489,3.0273438 95.343827,4.461059 94.416922,5.7438016 93.151346,6.4987361 91.358373,7.56827 89.279841,7.4956179 87.487284,6.457445 86.802297,6.0607314 86.236664,5.2506834 85.436502,5.1103771 84.709217,4.98285 84.202082,5.4322749 83.67869,5.8672875 c -1.168178,0.9709239 -2.84775,2.299586 -3.502363,3.703025 -0.597482,1.2809545 0.809751,2.1499665 1.366359,3.1250005 0.842762,1.476305 0.973081,3.327602 0.241578,4.882812 -0.705002,1.498866 -2.171894,2.667436 -3.769637,3.078282 -0.751841,0.193331 -1.895588,0.0058 -2.520677,0.50109 -0.576915,0.457117 -0.575589,1.318431 -0.608091,1.987034 -0.07187,1.478541 -0.21839,3.02251 0.06428,4.492188 0.320425,1.665997 2.233439,1.230716 3.455117,1.668972 1.595004,0.57218 2.815914,1.83345 3.411564,3.409153 0.578304,1.529813 0.319925,3.312292 -0.527464,4.6875 -0.410744,0.666585 -1.264744,1.240092 -1.364777,2.050781 -0.08699,0.704983 0.398064,1.254365 0.816666,1.757812 0.941669,1.132536 2.046465,2.288408 3.230417,3.170965 1.42781,1.064339 2.337649,-0.485427 3.515626,-1.094941 1.519922,-0.786447 3.289785,-0.980368 4.882812,-0.267952 1.493165,0.667759 2.71163,2.063244 3.101641,3.660678 0.186731,0.764826 -0.0039,1.992211 0.4925,2.607331 0.479342,0.593972 1.274241,0.585163 1.972265,0.619093 1.437368,0.06987 2.860024,0.157559 4.296874,-0.03202 1.85204,-0.244367 1.32752,-1.961353 1.76655,-3.292057 0.51166,-1.550865 1.63741,-2.763572 3.11626,-3.43824 1.58761,-0.724286 3.38618,-0.483084 4.88281,0.343758 0.96028,0.530523 1.8969,1.940381 3.125,1.239541 1.36506,-0.778991 2.63934,-2.225524 3.63732,-3.418496 0.43612,-0.521326 0.86939,-1.031459 0.77183,-1.757813 -0.11111,-0.827205 -0.95453,-1.374119 -1.3754,-2.050784 -0.93835,-1.508662 -1.10257,-3.33882 -0.40916,-4.980469 0.63582,-1.505297 2.12875,-2.81251 3.72307,-3.199297 0.77042,-0.186908 1.98246,0.01178 2.60733,-0.492501 0.59397,-0.479344 0.58516,-1.274237 0.61909,-1.972264 0.072,-1.480505 0.21411,-3.020078 -0.0642,-4.492188 -0.30776,-1.627901 -2.14154,-1.251253 -3.35753,-1.667842 -1.62715,-0.557444 -2.90091,-1.801091 -3.50922,-3.410283 -0.57831,-1.52981 -0.31993,-3.312298 0.52746,-4.6875 0.41074,-0.666582 1.26474,-1.240095 1.36478,-2.050781 0.087,-0.7049829 -0.39807,-1.2543678 -0.81667,-1.7578125 -0.94167,-1.1325359 -2.04646,-2.2884071 -3.23042,-3.1709641 -1.42781,-1.0643363 -2.33764,0.4854202 -3.51562,1.0949403 -1.51591,0.7843733 -3.28689,0.9758293 -4.88281,0.2852082 -1.48878,-0.6442547 -2.71698,-2.102381 -3.10165,-3.6779344 -0.18673,-0.7648289 0.004,-1.9922078 -0.4925,-2.60733068 -0.86628,-1.07344687 -3.946459,-0.83545744 -5.194913,-0.67153871 M 107.50681,37.207031 c -6.95759,4.25829 -16.426357,2.019537 -20.380011,-5.273437 -1.044407,-1.926533 -1.550372,-3.983444 -1.699038,-6.152344 -0.117149,-1.709104 0.08763,-3.432024 0.597165,-5.078125 0.682451,-2.20471 1.880647,-4.224885 3.513139,-5.859375 4.493807,-4.499313 11.592295,-5.5422038 17.187495,-2.50892 6.42224,3.481632 10.08025,13.085985 5.72736,19.592586 -0.50025,0.747776 -1.34663,-0.495908 -1.72345,-0.872729 -1.48827,-1.488274 -3.44591,-2.965259 -4.65254,-4.6875 -0.31649,-0.45174 0.017,-0.995248 0.14551,-1.464843 0.25185,-0.920087 0.36445,-1.878283 0.29907,-2.832032 -0.27853,-4.063376 -3.53955,-7.644546 -7.608445,-8.174866 -1.07045,-0.139517 -2.279322,-0.11583 -3.320313,0.196818 -0.53512,0.160718 -1.027299,0.638613 -0.806041,1.239767 0.70834,1.924545 3.614779,2.770841 4.346834,4.6875 0.221134,0.578967 -0.0025,1.456967 -0.09879,2.050781 -0.06793,0.41875 -0.07991,1.069668 -0.333056,1.422573 -0.273129,0.380766 -1.121141,0.387802 -1.54645,0.456935 -0.589066,0.09575 -1.367257,0.296941 -1.953125,0.12109 -1.232815,-0.370041 -2.522287,-2.276791 -3.417969,-3.172473 -0.467883,-0.467881 -1.170536,-1.492965 -1.951618,-1.196664 -0.82327,0.312304 -0.856885,1.635343 -0.883804,2.368539 -0.08316,2.265066 0.550037,4.381857 2.001878,6.152344 1.769092,2.15737 4.586217,3.406072 7.376513,3.213915 0.830284,-0.05718 2.059406,-0.740224 2.832026,-0.584128 0.60927,0.12309 1.23747,1.049083 1.66016,1.471776 l 3.125,3.125 c 0.53558,0.535577 1.23934,1.064825 1.5625,1.757812 z"
       id="path1" /></g></svg>
