<?xml version="1.0" encoding="UTF-8" standalone="no"?>
<!-- Created with Inkscape (http://www.inkscape.org/) -->

<svg
   width="26.192211mm"
   height="49.999996mm"
   viewBox="0 0 26.19221 49.999996"
   version="1.1"
   id="svg1"
   xml:space="preserve"
   xmlns="http://www.w3.org/2000/svg"
   xmlns:svg="http://www.w3.org/2000/svg"><defs
     id="defs1" /><g
     id="layer1"
     transform="matrix(1.0000125,0,0,1.0000125,-120.55869,0)"><path
       style="fill:#020202;stroke:none"
       d="m 132.27887,0.05961305 c -3.1939,0.41935742 -6.39641,0.31557381 -9.47266,1.50259435 -0.61544,0.2374798 -1.36274,0.4929989 -1.80099,1.013109 -0.61083,0.7249386 -0.54713,2.8808028 -0.10896,3.6913455 0.73303,1.3559699 2.57821,0.1890987 3.37819,1.3702035 0.97084,1.4333785 1.7322,3.0709896 2.56551,4.5883356 0.5173,0.941947 1.20248,1.882726 1.48488,2.929688 0.26856,0.995627 0.14543,2.102899 0.14543,3.125 0,0.879881 -0.22338,2.632409 1.17188,2.484283 0.75355,-0.08 1.56246,-0.583801 2.24609,-0.891942 1.42409,-0.6419 2.86804,-1.240397 4.29688,-1.871672 0.74896,-0.330902 1.77048,-0.609068 2.28143,-1.287389 0.51211,-0.67986 0.46113,-1.67318 0.84063,-2.437186 1.09792,-2.210334 2.36381,-4.4365174 3.65028,-6.5428948 0.65647,-1.0748595 1.80561,-0.4467041 2.7976,-0.8784533 1.10872,-0.4825592 1.17335,-2.928561 0.75932,-3.906402 -0.47161,-1.1138379 -2.25323,-1.4896572 -3.29801,-1.7865211 -2.51781,-0.71541362 -5.11689,-0.93595974 -7.71485,-1.04973011 -1.06836,-0.04678667 -2.1513,-0.1930356 -3.22265,-0.05236864 M 137.5523,19.409641 c -2.00243,0.354216 -4.1943,1.772884 -6.05468,2.594823 -0.80319,0.354856 -1.86144,0.626868 -2.47261,1.287693 -0.75605,0.81748 -1.1582,4.340106 0.51948,4.327693 0.74506,-0.0055 1.57511,-0.556424 2.24609,-0.843942 1.46991,-0.629848 2.92619,-1.292005 4.39454,-1.925623 0.72473,-0.312734 1.64965,-0.568796 2.15544,-1.208419 0.68495,-0.866184 1.07188,-4.561269 -0.78826,-4.232225 m 0.19532,6.85274 c -0.78847,0.0092 -1.6349,0.570911 -2.34375,0.876796 -1.40337,0.605584 -2.79402,1.240445 -4.19922,1.841757 -0.74623,0.319323 -1.67063,0.59773 -2.22522,1.217237 -0.73489,0.820896 -1.06352,4.133296 0.4674,4.270274 0.73938,0.06616 1.58783,-0.518328 2.2461,-0.800011 1.503,-0.643161 2.99246,-1.317659 4.49219,-1.968196 0.72831,-0.315922 1.66338,-0.571078 2.169,-1.222435 0.67072,-0.864031 1.03827,-4.234567 -0.6065,-4.215422 m -0.39063,6.91295 c -1.91489,0.43858 -3.85666,1.672807 -5.66406,2.446228 -0.8797,0.376442 -2.05185,0.697711 -2.7135,1.417446 -0.78191,0.850544 -1.06643,4.39097 0.66272,4.276005 0.75063,-0.04991 1.56675,-0.580654 2.24609,-0.88079 1.42884,-0.631273 2.87279,-1.229772 4.29688,-1.871669 0.74628,-0.336385 1.66441,-0.582382 2.1941,-1.243613 0.80521,-1.005178 0.96619,-4.599031 -1.02223,-4.143607 m 0.0977,6.835937 c -2.21228,0.488201 -4.46381,1.910568 -6.54297,2.807767 -0.76472,0.329995 -1.92219,0.636887 -2.32627,1.437792 -0.31026,0.614971 0.13785,1.290777 0.51647,1.757437 0.91051,1.122236 2.05517,2.106163 3.07933,3.124925 0.48413,0.481576 1.0143,0.998119 1.75782,0.826535 0.75707,-0.17471 1.33205,-0.986648 1.85546,-1.510054 1.3997,-1.399699 3.02721,-2.56061 3.02735,-4.6875 7e-5,-1.080936 0.52813,-4.175159 -1.36719,-3.756902 z"
       id="path1" /></g></svg>
