<?xml version="1.0" encoding="UTF-8" standalone="no"?>
<!-- Created with Inkscape (http://www.inkscape.org/) -->

<svg
   width="47.08033mm"
   height="50mm"
   viewBox="0 0 47.08033 50"
   version="1.1"
   id="svg1"
   xml:space="preserve"
   xmlns="http://www.w3.org/2000/svg"
   xmlns:svg="http://www.w3.org/2000/svg"><defs
     id="defs1" /><g
     id="layer1"
     transform="matrix(0.94160657,0,0,0.94160657,-73.829347,0)"><path
       style="fill:#020202;stroke:none;stroke-width:1.13236"
       d="m 93.99003,18.527833 c 0.721387,0.196906 2.204866,0.525146 2.670094,1.136536 0.446445,0.586708 0.551253,1.608346 0.853256,2.291506 0.212061,0.479703 0.790912,1.174131 0.766481,1.705658 -0.04288,0.933043 -1.438514,2.040152 -0.730046,2.938786 0.548398,0.695599 1.870418,2.353911 2.743385,2.566767 0.83727,0.204148 1.71532,-0.838862 2.54339,-0.8879 0.43974,-0.02604 0.83815,0.317623 1.2164,0.497366 0.84465,0.401356 1.82223,0.567206 2.64202,0.991823 0.92546,0.479345 0.58534,2.21654 1.4799,2.626066 0.81538,0.373289 2.39314,0.06713 3.28708,0.06673 0.31553,-1.41e-4 0.75144,0.06981 0.99592,-0.177306 0.79221,-0.800768 0.42245,-2.184407 1.65848,-2.623593 0.92518,-0.328738 2.61161,-1.43595 3.53819,-1.38108 0.84292,0.04992 1.93297,1.277588 2.76455,0.793357 0.73188,-0.426173 2.46018,-1.97881 2.68631,-2.80397 0.27723,-1.011619 -1.21437,-1.960165 -0.80539,-2.985714 0.39946,-1.001677 0.88579,-2.789347 1.5298,-3.618491 0.53369,-0.687097 1.75024,-0.617272 2.41497,-1.144814 0.32656,-0.259163 0.25615,-0.72609 0.25632,-1.097542 4.2e-4,-0.921707 0.22746,-2.188648 -0.0351,-3.07266 -0.29506,-0.993218 -2.28162,-0.645011 -2.74561,-1.586466 -0.37532,-0.761515 -0.52201,-1.642957 -0.89704,-2.418129 -0.20539,-0.4245531 -0.60799,-0.9494868 -0.59036,-1.4375655 0.0298,-0.8257913 1.09514,-1.7198763 0.87237,-2.5433862 -0.23984,-0.8866135 -1.86629,-2.1794693 -2.57565,-2.7437318 -1.02316,-0.8138955 -2.19907,1.0454771 -3.31745,0.5797017 -0.74873,-0.3118218 -1.43908,-0.7349174 -2.21164,-1.0047075 -0.47857,-0.1671251 -1.13676,-0.2319293 -1.49295,-0.6218516 -0.52359,-0.5731752 -0.54578,-2.34851462 -1.39413,-2.4962048 -0.93697,-0.16311925 -2.02257,-0.01644141 -2.97377,-0.01638071 -0.33832,2.027e-5 -0.84417,-0.08914593 -1.10642,0.17730648 -0.729,0.7406882 -0.42628,2.22526733 -1.54806,2.64483973 -0.7783,0.2911012 -1.5626,0.5100818 -2.32171,0.8612762 -0.40571,0.1876938 -0.861,0.5742549 -1.32698,0.545911 -0.79633,-0.048437 -1.87492,-1.2192065 -2.65397,-0.8246709 -0.85714,0.4340802 -1.653347,1.550318 -2.321627,2.2350201 -0.237489,0.2433256 -0.557079,0.5104698 -0.522193,0.8846561 0.07846,0.8415544 1.213642,1.8162913 0.861191,2.6727416 -0.321589,0.7814581 -0.773543,1.5006331 -1.065463,2.3034491 -0.175502,0.482656 -0.225029,1.120136 -0.631834,1.476389 -0.58236,0.509993 -2.110885,0.482838 -2.445944,1.208295 -0.478777,1.036626 -0.06673,3.137823 -0.06673,4.281983 M 109.25035,7.0589613 c 1.15666,-0.142051 2.42309,-0.026717 3.53863,0.3040971 7.56966,2.2448203 9.03131,12.4716956 2.43279,16.7663156 -1.08758,0.707853 -2.36151,1.163723 -3.6492,1.333126 -7.90217,1.039578 -13.561032,-7.970942 -8.90859,-14.564826 0.71262,-1.0099956 1.66705,-1.8853312 2.716,-2.5361343 1.16325,-0.7217259 2.51674,-1.136341 3.87037,-1.3025784 m -4.3127,14.4545857 c 1.04068,-3.667214 5.18675,-5.989817 8.51481,-3.370788 1.16506,0.916845 1.60061,2.044651 2.10106,3.370788 1.34091,-1.028564 1.94706,-2.919244 2.1194,-4.533863 0.14456,-1.354278 -0.11255,-2.75093 -0.7105,-3.980952 -0.55141,-1.134191 -1.36931,-2.122677 -2.40413,-2.852009 -2.9179,-2.0565055 -7.20355,-1.7105283 -9.69923,0.880306 -2.5387,2.635506 -3.12032,8.038345 0.0786,10.486518 m 5.19736,-11.007433 c 3.33266,-0.111639 3.80008,5.198796 0.44232,5.363313 -3.64216,0.17845 -4.09527,-5.240946 -0.44232,-5.363313 M 86.470453,37.105611 c 0.363955,2.016778 2.252394,4.3055 3.270872,6.082009 0.371618,0.648206 0.743576,1.783649 1.333129,2.25072 0.357286,0.28306 0.858592,-0.122701 1.256846,-0.118857 0.810338,0.0078 1.765431,0.410383 2.543386,0.632688 2.784938,0.795804 5.596524,1.541888 8.404234,2.253024 1.50932,0.382282 3.06401,0.993865 4.64444,0.658714 1.54519,-0.327677 2.87651,-1.310418 4.20212,-2.115222 2.29323,-1.392277 4.58208,-2.795564 6.85609,-4.21901 2.2755,-1.424385 4.56696,-2.826132 6.85608,-4.228567 0.93975,-0.575751 2.29047,-1.091222 2.50695,-2.30132 0.61903,-3.460183 -3.46572,-2.534315 -5.2715,-1.631425 -2.84475,1.42237 -5.53487,3.192691 -8.29365,4.774309 -1.51378,0.867857 -2.99202,1.949574 -4.75503,2.227086 -2.18204,0.34347 -4.56215,-0.464971 -6.63492,-1.057271 -1.0824,-0.309298 -2.83492,-0.386453 -3.736153,-1.075701 -0.733689,-0.561114 -0.242414,-1.622986 0.639853,-1.522123 2.25247,0.257506 4.35491,1.497862 6.63492,1.67716 1.19099,0.09366 2.21006,-0.836992 2.02819,-2.065051 -0.30335,-2.048365 -3.77292,-2.07894 -5.34564,-2.581439 -2.44655,-0.781695 -5.350448,-2.457136 -7.961911,-2.274272 -1.446889,0.101324 -2.762293,0.931896 -3.980951,1.647638 -1.718989,1.009594 -3.433523,2.057876 -5.197355,2.98691 m -4.533862,-1.809417 c -0.996017,0.281348 -3.281911,1.380959 -3.500484,2.472908 -0.214643,1.072323 0.847836,2.326015 1.352838,3.206878 1.473651,2.570459 2.969384,5.137859 4.384798,7.740741 0.668567,1.229462 1.944006,4.841031 3.734276,4.335907 1.032993,-0.291459 3.368643,-1.416299 3.56354,-2.566594 0.179431,-1.059021 -0.923046,-2.337078 -1.415553,-3.206879 -1.439461,-2.542188 -2.860009,-5.095668 -4.31304,-7.630159 -0.727709,-1.269327 -1.918712,-4.886015 -3.806375,-4.352802 m -0.110156,2.638693 c 1.185906,-0.156477 1.446367,1.740908 0.220311,1.842611 -1.141875,0.09472 -1.357406,-1.692572 -0.220311,-1.842611 z"
       id="path1" /></g></svg>
