<?xml version="1.0" encoding="UTF-8" standalone="no"?>
<!-- Created with Inkscape (http://www.inkscape.org/) -->

<svg
   width="28.433477mm"
   height="50.000004mm"
   viewBox="0 0 28.433477 50.000004"
   version="1.1"
   id="svg1"
   xml:space="preserve"
   xmlns="http://www.w3.org/2000/svg"
   xmlns:svg="http://www.w3.org/2000/svg"><defs
     id="defs1" /><g
     id="layer1"><path
       style="fill:#020202;stroke:none;stroke-width:0.367524"
       d="M 3.3284314,0.14569511 C -0.10448895,0.68185397 0.11949096,3.9275623 0.11949096,6.6181224 v 19.8370846 15.46126 c 0,1.910774 -0.53090253,4.774602 0.64541924,6.417881 1.4417106,2.014011 4.0989321,1.555849 6.2586661,1.555849 H 19.081412 c 1.96968,0 4.186417,0.283074 6.126159,-0.0598 3.390486,-0.59931 3.111701,-3.884953 3.111701,-6.552564 V 23.246267 7.9794909 c 0,-1.8894793 0.515963,-4.6908001 -0.645496,-6.3206401 C 26.2228,-0.37725496 23.494231,0.103001 21.317947,0.103001 H 9.3573512 c -1.94911,0 -4.1034745,-0.25802215 -6.0289198,0.0426941 M 22.290352,2.4012128 c 1.172467,-0.022662 1.183323,1.7913009 7.4e-5,1.7762912 -1.137478,-0.014429 -1.132539,-1.7543997 -7.4e-5,-1.7762912 m -3.20894,0.3272849 V 3.7981444 H 9.3573512 V 2.7284977 h 9.7240608 m 6.51512,3.500662 V 40.457858 H 2.8422308 V 6.2291597 H 25.596532 M 18.692451,46.000573 H 9.7463124 c 0,-0.527422 -0.2779875,-2.279135 0.1559146,-2.622795 0.358857,-0.284221 1.350043,-0.09994 1.788899,-0.09994 h 4.862029 c 0.476174,0 1.596452,-0.206511 1.983381,0.09994 0.433902,0.34366 0.155915,2.095369 0.155915,2.622795 z"
       id="path1" /></g></svg>
