<?xml version="1.0" encoding="UTF-8" standalone="no"?>
<!-- Created with Inkscape (http://www.inkscape.org/) -->

<svg
   width="50mm"
   height="48.266949mm"
   viewBox="0 0 50 48.266949"
   version="1.1"
   id="svg1"
   xml:space="preserve"
   xmlns="http://www.w3.org/2000/svg"
   xmlns:svg="http://www.w3.org/2000/svg"><defs
     id="defs1" /><g
     id="layer1"
     transform="translate(-103.64574,-64.994673)"><path
       style="fill:#020202;stroke:none;stroke-width:1.00041"
       d="m 117.98194,78.710785 c 5.16807,-2.148787 10.18013,-3.155829 15.72904,-1.912381 1.94207,0.435192 3.67899,1.372173 5.56868,1.912381 -0.17703,0.857703 -0.44434,1.651265 -0.38204,2.540096 0.28311,4.03921 4.49223,3.712447 7.41615,3.712447 2.37165,0 5.27275,0.441832 6.61167,-2.051616 0.27496,-0.512066 0.43581,-1.093811 0.55277,-1.660831 1.26793,-6.146659 -4.91764,-11.000082 -9.89993,-13.13242 -9.94063,-4.254429 -21.42545,-4.267189 -31.16502,0.603212 -4.57985,2.290221 -9.54273,6.571378 -8.66599,12.23612 0.0807,0.521622 0.21741,1.083698 0.43956,1.563135 1.28858,2.781029 4.29242,2.4424 6.85869,2.4424 2.68618,0 5.93863,0.360051 7.08891,-2.735488 0.17933,-0.482603 0.23986,-0.953504 0.23822,-1.465439 -0.002,-0.706135 -0.20044,-1.37613 -0.39071,-2.051616 m 5.27557,7.327198 c -1.05861,0 -2.5162,-0.258357 -3.51698,0.110737 -1.32584,0.488987 -2.44045,2.328065 -3.41943,3.308624 -3.97071,3.977107 -6.55503,8.268092 -7.35366,13.872836 -0.25725,1.80544 -0.0712,3.74549 -0.0712,5.56866 0,1.01147 -0.18854,2.23727 0.0385,3.22397 0.16239,0.7056 0.85416,1.03788 1.52462,1.07074 3.07754,0.15079 6.19948,0.004 9.28111,0.004 h 18.56224 6.83872 c 0.87737,0 2.10673,0.22005 2.8123,-0.42923 0.55119,-0.50721 0.41166,-1.33808 0.41166,-2.01317 v -4.9825 c 0,-6.417962 -2.74479,-11.634553 -7.2295,-16.119837 -1.02765,-1.027788 -2.22809,-2.992576 -3.61483,-3.504012 -1.00076,-0.369095 -2.45836,-0.110737 -3.51698,-0.110737 0,-0.855096 0.22041,-2.066321 -0.24748,-2.824064 -0.5727,-0.927488 -2.04418,-0.891031 -2.54107,0.08896 -0.36809,0.725961 -0.14232,1.937232 -0.14232,2.735112 h -4.8848 c 0,-0.79788 0.22577,-2.009151 -0.14232,-2.735112 -0.49689,-0.979983 -1.96837,-1.01644 -2.54107,-0.08896 -0.4679,0.757734 -0.24749,1.968974 -0.24749,2.824064 m 4.68941,6.085044 c 0.87496,-0.104643 1.78884,0.0118 2.63779,0.229013 6.48439,1.659024 7.94392,10.601919 2.24701,14.179709 -1.00771,0.63287 -2.14135,1.02182 -3.32166,1.16677 -7.95213,0.97663 -11.83452,-9.795882 -5.27559,-14.260438 1.1088,-0.754746 2.38923,-1.1568 3.71245,-1.315054 m -0.0977,3.046058 c -0.70394,0.126652 -1.36222,0.387408 -1.95392,0.787 -4.2207,2.850339 -1.33159,9.586674 3.61475,8.696454 0.65152,-0.11726 1.31127,-0.3825 1.85622,-0.75775 4.09483,-2.81967 1.44664,-9.618727 -3.51705,-8.725704 z"
       id="path1" /></g></svg>
