<?xml version="1.0" encoding="UTF-8" standalone="no"?>
<!-- Created with Inkscape (http://www.inkscape.org/) -->

<svg
   width="135.44463mm"
   height="135.61578mm"
   viewBox="0 0 135.44463 135.61578"
   version="1.1"
   id="svg1"
   xml:space="preserve"
   xmlns="http://www.w3.org/2000/svg"
   xmlns:svg="http://www.w3.org/2000/svg"><defs
     id="defs1" /><g
     id="layer1"><path
       style="fill:#2aa71a;stroke:none"
       d="m 63.425483,0.2702539 c -14.25155,1.87121 -27.320677,5.67635 -38.629167,15.0841001 -7.315614,6.086 -13.509746,13.57393 -17.7777134,22.10986 -15.0289268,30.05785 -5.152347,67.162896 22.2756294,86.328266 6.295086,4.3987 13.696115,7.83318 21.166661,9.65423 8.69739,2.1201 17.57272,2.77099 26.45834,1.57402 31.856737,-4.2914 57.055387,-31.82352 58.462487,-63.954436 1.45922,-33.32104 -22.62451,-64.3327901 -55.816657,-69.8712301 -5.1879,-0.86565 -10.88432,-1.61482 -16.13958,-0.92481 m 1.5875,25.3632501 c 23.59913,-2.78443 44.156207,18.51099 44.710697,41.19946 0.36261,14.83678 -7.72867,28.72936 -20.104447,36.593126 -5.30279,3.36948 -11.76012,5.36645 -17.99167,5.95987 -5.07015,0.48282 -10.45625,0.004 -15.34583,-1.3911 -2.34139,-0.66816 -5.02872,-2.41304 -7.40834,-2.61746 -3.41105,-0.29303 -7.771888,1.75025 -11.112494,2.46597 -2.745093,0.58813 -5.477419,1.27411 -8.202083,1.9509 -1.018446,0.25297 -2.465311,0.78247 -3.279936,-0.18293 -1.130468,-1.33969 0.119997,-4.48912 0.422395,-6.0013 0.758917,-3.795066 1.544437,-7.586856 2.32919,-11.377076 0.343383,-1.65849 1.10462,-3.58642 0.978305,-5.29167 -0.173193,-2.3381 -1.86151,-4.8876 -2.559885,-7.14375 -1.268664,-4.09851 -1.95978,-8.6739 -1.854939,-12.96458 0.399307,-16.342 10.256822,-31.04733 25.131537,-37.75294 4.57425,-2.06209 9.3564,-2.86471 14.2875,-3.44652 m -27.781251,72.94946 c 3.574358,-0.92515 9.192191,-3.34017 12.852301,-2.88368 3.06359,0.38211 6.26623,2.92499 9.3727,3.70519 8.80552,2.211546 18.23255,0.691986 25.92916,-4.10901 4.46826,-2.7872 8.16854,-6.6945 10.77361,-11.26459 2.4747,-4.34138 4.246567,-9.50364 4.306617,-14.55208 0.13456,-11.31064 -4.080367,-21.83851 -13.492727,-28.64237 -17.55031,-12.68651 -44.458634,-4.4759 -50.687711,16.73612 -1.838082,6.25927 -2.058474,13.03109 -0.186189,19.31459 0.833565,2.79749 3.004016,5.66478 3.476944,8.46666 0.686626,4.06792 -2.165949,9.07664 -2.344705,13.22917 m 16.139581,-51.2275 c 0.998,-0.15408 2.08531,0.25557 2.74179,1.01608 1.65244,1.9143 4.66683,8.00189 3.98671,10.52392 -0.51005,1.89136 -2.88739,3.20715 -2.69156,5.29167 0.2097,2.23217 2.68947,4.34516 4.16514,5.82083 2.73558,2.73558 6.31951,6.3702 10.05417,7.68088 3.31851,1.16463 4.54756,-3.50528 7.67292,-3.41223 2.45518,0.0731 8.99664,1.56772 10.38693,3.68048 2.28225,3.46824 -3.85034,8.56493 -6.68277,9.45497 -11.28992,3.5477 -23.5306,-6.81192 -30.09635,-14.75827 -1.76026,-2.13039 -3.29214,-4.38685 -4.49567,-6.87916 -2.45878,-5.09172 -2.83866,-10.82086 0.88827,-15.34563 0.99379,-1.20654 2.43498,-2.82105 4.07042,-3.07354 z"
       id="path1" /></g></svg>
