<?xml version="1.0" encoding="UTF-8" standalone="no"?>
<!-- Created with Inkscape (http://www.inkscape.org/) -->

<svg
   width="49.864155mm"
   height="50.000004mm"
   viewBox="0 0 49.864155 50.000004"
   version="1.1"
   id="svg1"
   xml:space="preserve"
   xmlns="http://www.w3.org/2000/svg"
   xmlns:svg="http://www.w3.org/2000/svg"><defs
     id="defs1" /><g
     id="layer1"><path
       style="fill:#020202;stroke:none;stroke-width:0.409702"
       d="M 23.306078,0.10488013 C 21.950037,0.28292852 19.946806,0.14466222 18.757949,0.91027272 18.097431,1.3356419 17.75045,2.3993723 17.452543,3.0940879 16.646979,4.9726503 15.95679,6.8742012 15.392852,8.8393092 c -0.3253,1.1335517 -0.637899,2.3024818 -0.81961,3.4688088 -0.07577,0.486358 -0.122214,1.097818 0.302365,1.441407 0.991479,0.802348 3.735652,0.293002 4.961661,0.293002 h 9.756034 c 1.525125,0 3.26883,0.235714 4.769614,-0.03573 1.052918,-0.190429 1.068409,-1.15804 0.879668,-2.023892 C 34.811401,10.004846 34.30457,8.0320114 33.609883,6.1292888 33.058617,4.6193764 32.506621,2.1917885 31.304624,1.0646608 30.786048,0.57839345 29.831384,0.5278239 29.159698,0.41116939 27.28944,0.0863452 25.198972,-0.14366571 23.306078,0.10486784 M 11.056838,4.3572408 C 10.307943,4.5845271 9.5885152,5.3038003 8.9972309,5.7954717 7.3457586,7.1687238 5.9209,8.7363879 4.6486701,10.465303 c -0.5298527,0.720051 -1.4556682,1.74284 -1.25798,2.70959 0.1175285,0.574754 0.622241,0.81298 1.1621257,0.857502 1.479957,0.122042 3.8972287,0.388918 5.3111996,-0.06064 0.8216936,-0.26125 0.8752456,-1.16008 1.0193466,-1.880447 0.299369,-1.496556 0.653745,-2.9727089 1.057154,-4.4444166 C 12.137006,6.9300846 12.567594,6.12368 12.552947,5.3704835 12.537748,4.5882104 11.777258,4.138595 11.056838,4.3572408 m 26.993365,8.6e-5 c -0.537894,0.1709359 -0.795855,0.6891724 -0.723591,1.2299588 0.183956,1.3766527 0.812402,2.7642649 1.141463,4.1192156 0.264377,1.0885788 0.259669,2.9916578 0.957457,3.8792408 0.381937,0.485829 0.993115,0.456556 1.549806,0.456773 1.396953,4.1e-4 3.574746,0.411247 4.873666,-0.124464 1.456438,-0.600668 0.133374,-2.365817 -0.39889,-3.127547 C 44.063792,8.8065084 42.431924,7.034403 40.541737,5.5222126 39.881621,4.9941023 38.988356,4.0591988 38.050203,4.3573268 M 1.5192782,17.808592 C 0.83867681,18.076902 0.72644954,18.944122 0.58800502,19.570934 0.21138544,21.276082 0,23.029235 0,24.774152 c 0,1.749855 0.15304057,3.485317 0.49867519,5.203219 0.12183478,0.605548 0.19642189,1.453725 0.63074601,1.926448 0.4773776,0.519576 1.3786585,0.349959 2.0141898,0.349959 h 4.2276143 c 0.6263077,0 1.4683252,0.143454 2.0548393,-0.109406 0.7798344,-0.336198 0.6056124,-1.169704 0.5563887,-1.8418 -0.1247359,-1.703149 -0.2264199,-3.384124 -0.2264199,-5.09482 0,-1.422465 -0.1357626,-2.923114 0.030949,-4.336013 0.083466,-0.707388 0.3578706,-1.961183 -0.02434,-2.596845 C 9.3490197,17.586988 8.4899581,17.728126 7.8048271,17.728126 H 3.4688122 c -0.5896385,0 -1.3929908,-0.138942 -1.949534,0.08047 m 12.7912428,0 c -0.989706,0.390323 -0.768409,2.200773 -0.850472,3.063147 -0.255298,2.682701 -0.08411,5.556819 0.0997,8.238427 0.05203,0.759092 -0.02884,2.317837 0.575037,2.856051 0.420904,0.375119 1.063468,0.287561 1.583266,0.287561 h 3.468813 11.38204 c 1.365922,0 3.613979,0.431667 4.87333,-0.109406 0.919298,-0.39497 0.829909,-2.288917 0.867622,-3.142605 0.121268,-2.745071 0.409432,-5.719795 0.05027,-8.45523 -0.102532,-0.780908 0.146817,-2.110093 -0.5998,-2.629546 -0.435312,-0.302864 -1.112718,-0.188865 -1.61421,-0.188865 h -3.577212 -11.38204 c -1.378549,0 -3.593195,-0.42559 -4.876345,0.08047 m 26.340119,0 c -0.846235,0.329323 -0.669986,1.156683 -0.652491,1.870741 0.04338,1.770602 0.109984,3.53471 0.109984,5.311617 0,1.441177 0.02954,2.904523 -0.139348,4.336018 -0.08195,0.694585 -0.35792,1.726752 -0.0154,2.373434 0.375468,0.708854 1.328325,0.553376 1.997545,0.553376 h 4.336014 c 0.619236,0 1.473977,0.149751 2.057934,-0.08046 0.680601,-0.26831 0.792831,-1.135535 0.931273,-1.762342 0.376623,-1.705148 0.588005,-3.458301 0.588005,-5.203219 0,-1.752718 -0.152434,-3.482333 -0.498673,-5.203218 -0.121837,-0.605548 -0.196424,-1.45373 -0.630745,-1.926448 -0.477381,-0.51958 -1.378664,-0.34996 -2.01419,-0.34996 h -4.119216 c -0.591864,0 -1.391258,-0.137254 -1.950703,0.08047 M 4.1196327,36.01015 c -1.6109441,0.51223 -0.2563969,2.396458 0.2945034,3.181247 1.545375,2.201489 3.4069238,4.144969 5.5586982,5.758937 0.6803937,0.510338 1.6614457,1.46673 2.5999347,1.098224 0.594703,-0.233514 0.721592,-0.871564 0.594781,-1.437142 C 12.855619,43.220203 12.206241,41.87554 11.832035,40.492202 11.525529,39.359146 11.446792,37.283934 10.68505,36.387461 10.254534,35.880802 9.5983546,35.939431 8.9972309,35.93939 7.544229,35.939296 5.5053574,35.569535 4.1196327,36.01015 m 11.4904393,0 c -1.123986,0.357391 -0.738403,1.583437 -0.528705,2.422446 0.573616,2.295057 1.290587,4.554429 2.247721,6.720824 0.545211,1.234043 1.199891,3.223315 2.301498,4.063508 0.627705,0.478745 1.730553,0.435292 2.48309,0.535309 2.368054,0.314737 5.394963,0.444199 7.696342,-0.3206 0.900743,-0.299333 1.302759,-1.458393 1.734491,-2.218612 1.333028,-2.347298 2.188633,-5.004741 2.92681,-7.588024 0.24907,-0.871641 1.051902,-2.680214 0.192126,-3.398049 C 33.747646,35.462341 31.173216,35.93939 30.026902,35.93939 H 20.16247 c -1.359786,0 -3.254847,-0.341819 -4.552398,0.07076 m 24.172946,-0.0087 c -0.895388,0.258202 -0.938054,1.237628 -1.124657,1.997544 -0.339274,1.381659 -0.665717,2.767973 -1.115697,4.119211 -0.284895,0.855511 -0.783875,1.815128 -0.882847,2.710012 -0.09385,0.848591 0.543458,1.443667 1.388715,1.258064 0.796297,-0.174861 1.53592,-0.899997 2.168004,-1.380602 1.895619,-1.441341 3.501648,-3.173017 4.918164,-5.080679 0.563665,-0.759109 1.610904,-1.894267 1.322048,-2.925139 -0.188025,-0.671031 -0.878701,-0.75731 -1.470597,-0.760391 -1.567296,-0.0082 -3.697112,-0.372304 -5.203133,0.06198 z"
       id="path1" /></g></svg>
