<?xml version="1.0" encoding="UTF-8" standalone="no"?>
<!-- Created with Inkscape (http://www.inkscape.org/) -->

<svg
   width="49.688435mm"
   height="50.000004mm"
   viewBox="0 0 49.688435 50.000004"
   version="1.1"
   id="svg1"
   xml:space="preserve"
   xmlns="http://www.w3.org/2000/svg"
   xmlns:svg="http://www.w3.org/2000/svg"><defs
     id="defs1" /><g
     id="layer1"><path
       style="fill:#020202;stroke:none;stroke-width:0.370379"
       d="M 24.203336,0.08683166 C 22.25478,0.34267445 20.343735,0.40875372 18.421571,0.91586512 12.818126,2.3941947 7.8073686,5.8874213 4.4787626,10.628813 -3.2722884,21.669702 -0.72661368,37.370678 10.2879,45.277441 c 2.373161,1.703571 5.028097,3.020497 7.839683,3.821923 3.2186,0.917439 6.587811,1.10105 9.897598,0.699882 C 40.657615,48.268115 49.992299,37.155973 49.680869,24.446254 49.412697,13.501748 42.460048,4.1007256 31.847026,1.053709 29.512958,0.38359389 26.636555,-0.2326496 24.203336,0.08683166 M 20.381491,7.0029612 c -1.527345,0 -2.755851,0.6921786 -4.213451,0.845745 C 15.599872,7.9085668 15.401177,7.3327538 14.893639,7.2343405 14.363011,7.131453 13.325631,7.5762519 12.837385,7.7975902 12.31514,8.03434 11.999584,9.1635617 12.486384,9.5897231 c 0.232971,0.203949 0.57174,0.1212657 0.835537,0.2577688 0.216512,0.1120358 0.417507,0.4677661 0.676595,0.4670701 0.359639,-0.0011 0.739284,-1.1562301 1.189564,-1.3522086 1.130204,-0.491911 2.439149,0.036482 3.625475,-0.2863508 0.52731,-0.1434922 1.099687,-0.6847451 1.665858,-0.5507754 1.362318,0.3223591 1.004909,2.5170938 2.547971,2.6015808 -0.3689,0.523697 -1.104002,1.497737 -1.763929,1.630848 -0.687998,0.138773 -1.900186,-0.500878 -2.547896,-0.748884 -0.102704,0.43138 0.06496,1.286722 -0.255123,1.606803 -0.373132,0.373134 -1.413744,0.126158 -1.90079,0.166274 -0.767933,0.06326 -1.336081,0.595214 -1.801281,1.166804 -1.427211,1.753614 -0.938584,4.52282 -3.09852,5.79069 -0.536922,0.315173 -1.069865,-0.205398 -1.567936,-0.39448 -0.8407387,-0.31917 -1.8652987,-0.462569 -2.7438892,-0.225631 -0.4324764,0.116625 -1.2086891,0.452722 -1.1640814,1.003249 0.013674,0.168759 0.114777,0.337952 0.1818526,0.489904 0.7128808,1.61494 1.0878597,-0.253632 2.1270278,0.268809 0.272908,0.137203 0.1949392,0.469274 0.2861998,0.711224 0.1070209,0.283739 0.9006247,1.799959 1.1314155,1.900717 1.5392579,0.672011 3.4595189,-2.288393 4.5673259,-0.136789 0.150109,0.291548 0.30393,0.574061 0.415954,0.88189 1.528915,-0.680248 3.27459,-1.204941 4.665245,0.314859 0.44945,0.491186 0.460095,1.305211 1.118032,1.624041 1.460785,0.707886 4.154804,1.805596 4.108953,3.842868 -0.02036,0.904501 -0.481122,2.184301 -1.187598,2.767025 -0.354737,0.292599 -1.0146,0.38502 -1.254212,0.782836 -0.315808,0.524319 0.04779,1.195808 -0.360679,1.731643 -0.410077,0.537945 -1.293761,0.501644 -1.542456,1.186689 -0.264569,0.728768 0.215847,1.490463 -0.212172,2.252018 -0.337666,0.600791 -0.918635,0.634992 -1.402191,1.031378 -0.558178,0.457548 -0.969375,1.789774 -0.947975,2.497912 0.03762,1.244828 1.046129,1.911484 1.52287,2.939881 -0.713399,0 -1.540819,0.09176 -2.151603,-0.357882 -0.571385,-0.420632 -0.706709,-1.264818 -0.942683,-1.896024 -0.378638,-1.012827 -1.017438,-2.096307 -1.263361,-3.135875 -0.145143,-0.61355 0.01085,-1.247072 -0.170662,-1.861923 -0.330849,-1.12074 -1.08883,-2.043298 -1.479014,-3.135874 -0.193917,-0.542994 -0.04153,-1.60937 -0.340188,-2.026764 C 12.761467,32.986183 11.730146,33.159501 11.267861,32.939771 10.231031,32.446963 9.1756172,31.025709 8.8396615,29.934033 8.5694506,29.055991 9.178338,27.551864 9.6478256,26.798536 9.8930507,26.405057 10.676178,25.87889 10.38136,25.342811 10.11101,24.851226 9.1031192,25.181918 8.621968,24.922624 8.2389154,24.716193 7.9718793,24.331051 7.5440116,24.202622 6.9879954,24.035733 6.4252083,24.228956 5.8780793,23.956272 5.1991159,23.617883 4.7132049,22.986947 4.0161548,22.673025 3.3868668,22.389618 2.4794046,22.518092 1.9893914,21.974346 1.6345153,21.580559 1.8333646,20.989472 1.9201287,20.526414 2.1566332,19.264189 2.4882363,17.999272 2.958085,16.802563 4.3997316,13.130684 6.6013974,9.8666108 9.6019282,7.2841713 10.354855,6.636153 11.713392,5.2048097 12.737801,5.0736623 c 0.647758,-0.082924 0.895875,0.9327728 1.567936,0.8644972 0.94991,-0.096502 1.597399,-1.0500014 2.36854,-1.4659293 1.92568,-1.0386492 3.115764,1.1082398 3.707214,2.530731 m 19.011232,-0.3919829 2.155912,2.057913 C 40.867193,8.3752514 39.063875,7.5723814 39.392723,6.6109783 m 2.547898,2.3519011 c 1.502482,1.5698836 3.721136,4.0575686 4.115834,6.2717486 -0.561091,-0.238117 -0.374883,-0.625685 -0.660719,-1.076521 -0.221868,-0.349941 -0.598358,-0.58732 -0.879242,-0.886879 -0.207079,-0.220846 -0.455577,-0.607065 -0.81157,-0.52446 -1.573528,0.365134 1.014975,1.883857 0.76635,2.449596 -0.251827,0.57305 -1.539345,0.94734 -1.980029,0.505782 -0.511964,-0.512971 -0.43951,-1.012434 -0.629037,-1.643471 -0.154648,-0.514893 -0.498541,-0.972847 -0.705556,-1.46994 -0.802481,0.563068 -1.644722,1.03636 -2.4499,1.589562 -0.470181,0.323033 -0.88229,0.836233 -1.46994,0.936328 -1.277101,0.217531 -2.585601,-0.537116 -2.299654,-2.035912 0.297481,-1.559265 2.487391,-2.343942 3.279613,-0.685971 h 0.09799 c 0.08248,-0.6526 -0.0582,-1.603933 0.357959,-2.145326 0.528012,-0.6869158 1.368431,-0.3899128 2.091944,-0.5479015 0.474462,-0.1036061 0.792373,-0.467792 1.175952,-0.7366351 M 42.92058,39.929624 c -0.150162,-0.522645 0.02978,-1.04499 -0.173985,-1.567935 -0.354701,-0.91028 -1.634933,-2.343823 -1.53792,-3.331864 0.07139,-0.72709 1.104229,-1.126759 1.398557,-1.763929 0.14797,-0.320325 -0.0022,-0.59415 -0.147821,-0.881964 -0.388202,-0.767413 -0.233787,-2.459655 -0.827297,-2.960522 -2.689708,-2.269862 -6.95411,2.355746 -8.9035,-1.449299 -0.574578,-1.121533 -0.99055,-3.381876 -0.606806,-4.605815 0.177107,-0.564876 0.771546,-0.881424 0.87879,-1.46994 0.173355,-0.951307 -0.361979,-2.148886 0.530811,-2.883776 0.512599,-0.42194 1.326462,-0.208238 1.941473,-0.331263 0.678115,-0.135648 1.207816,-0.58001 1.861924,-0.748202 0.709287,-0.182382 1.717595,-0.122992 2.4499,-0.09482 1.108869,0.04266 1.760962,1.573428 2.939881,1.612547 0.447862,0.01485 0.830333,-0.547964 1.175952,-0.778069 1.097169,-0.730457 2.420692,-1.029964 3.456552,0.05822 0.663137,0.696634 0.662852,2.641233 0.772477,3.55735 0.426343,3.562817 0.04368,7.299379 -1.196368,10.681566 -0.876538,2.390732 -2.140404,5.178339 -4.01262,6.957715 z"
       id="path1" /></g></svg>
