<?xml version="1.0" encoding="UTF-8" standalone="no"?>
<!-- Created with Inkscape (http://www.inkscape.org/) -->

<svg
   width="48.999329mm"
   height="49.999996mm"
   viewBox="0 0 48.999329 49.999996"
   version="1.1"
   id="svg1"
   xml:space="preserve"
   xmlns="http://www.w3.org/2000/svg"
   xmlns:svg="http://www.w3.org/2000/svg"><defs
     id="defs1" /><g
     id="layer1"><path
       style="fill:#020202;stroke:none;stroke-width:0.369471"
       d="m 10.385634,4.6856406 v 0.097755 c 0.820503,0 2.605637,0.085422 2.932675,0.9775571 h 1.661849 C 14.663412,5.0951104 13.959366,5.2721756 13.318309,5.2721756 l 0.195512,-0.7820478 h -1.270826 c 0.673631,-0.6186125 1.73599,-1.5097854 2.728338,-0.9748415 0.38848,0.2094161 0.51897,0.6880914 0.99023,0.764849 0.772209,0.1257716 1.257677,-0.5190031 1.951269,-0.3765425 -0.58206,0.8262107 -1.091567,0.977557 -2.052872,0.977557 L 15.95772,5.7609523 18.694883,5.2721756 18.792643,4.5878823 18.2061,4.4901278 C 18.65667,3.61109 19.593512,3.7437597 20.454484,3.9035928 19.971777,4.388006 19.689945,4.6694874 19.770193,5.3699302 l 0.977558,0.097755 c -0.0025,-0.2966999 -0.134763,-0.771529 0.01146,-1.0371453 0.241557,-0.4387688 1.010455,-0.5842923 1.454871,-0.6397868 1.249586,-0.1560424 3.416144,0.3684991 3.421454,1.872445 L 26.31983,5.7609523 24.560225,7.325048 22.214087,6.738513 23.97369,5.7609523 C 22.863057,4.2354441 21.491235,6.0244367 20.258971,6.0542197 l 0.293267,0.6842933 h -0.586535 v 0.3910221 l -0.68429,0.097755 -0.09776,-0.7820442 c -0.903931,0.2565162 -2.606739,0.7720685 -3.149986,1.6011278 -0.734861,1.1214954 1.357228,1.4781493 1.976916,1.5270562 v 1.3685821 c 0.773429,-0.05971 0.710196,-0.797251 1.281084,-1.1646933 0.29148,-0.1876062 0.843595,-0.1851012 1.00607,-0.5267952 0.320429,-0.6738816 -0.19798,-1.3154418 0.54965,-1.8532916 0.416754,-0.2998108 1.637978,-0.2028174 1.95044,0.2630965 0.189938,0.2832178 0.04192,0.7236714 0.003,1.0332991 l 1.759605,-0.6842896 c 0.102158,0.4290887 -0.0064,0.9577238 0.15674,1.3583965 0.210698,0.5174144 1.663639,1.2203286 0.430323,1.7303386 -0.157738,0.06523 -0.324026,0.09884 -0.489309,0.137207 l 1.17307,1.466337 c -0.44352,-0.05977 -1.302894,-0.161152 -1.59713,-0.53826 -0.336832,-0.431704 0.635401,-0.974102 -0.260229,-1.12359 -0.592048,1.07451 -1.390086,-0.18482 -2.136146,0.03115 -0.800535,0.231747 0.226044,0.734808 0.572054,0.750898 -0.601075,0.517544 -2.070055,0.322785 -2.052873,1.466337 -1.729031,0.499056 -2.406322,1.812687 -3.381252,3.110084 -0.563123,0.749383 -1.778684,0.905181 -2.131769,1.875464 -0.158406,0.435299 0.03492,1.010392 0.0387,1.466337 -0.733543,-0.305486 -1.072413,-0.546857 -1.075314,-1.368583 -1.463189,0 -3.167354,-0.276652 -4.3781936,0.746594 -1.0421505,0.880689 -1.5229776,3.259095 0.3702046,3.24729 0.759242,-0.0047 1.585804,-0.80879 2.150628,-1.256722 0.145432,0.709162 -0.123944,1.118108 -0.391023,1.759605 0.410773,0.07739 1.21342,0.05841 1.407352,0.503186 0.207516,0.475926 -0.113413,1.709615 0.383329,1.983331 0.435185,0.23979 1.593841,0.449719 1.993887,0.120381 0.405164,-0.333551 0.720505,-1.117853 1.299112,-1.161909 0.955492,-0.07275 1.228332,0.678652 1.963563,0.936073 0.374095,0.130981 0.958349,-0.03466 1.359757,-0.03492 v -0.391026 c 0.955554,0.276091 1.005288,1.05638 1.698885,1.602865 0.403884,0.318218 0.972968,0.0361 1.420175,0.215726 0.801434,0.321898 0.888452,1.567924 0.888929,2.287154 l 1.759605,0.568505 2.043746,0.174697 1.768731,1.211912 c -0.130712,1.011294 -0.89555,1.451877 -1.213653,2.34614 -0.322559,0.906807 0.101642,2.334841 -0.576648,3.08527 -0.659272,0.729387 -1.904312,0.277458 -2.36598,0.937203 -0.488721,0.698411 0.151383,1.334181 -0.04993,2.038389 -0.152581,0.533738 -0.705882,1.033942 -1.038354,1.466338 -1.032534,1.342864 -1.606178,2.019764 -3.357943,2.346139 0.0599,0.360563 0.455655,0.484336 0.496547,0.796077 0.03971,0.302719 -0.293485,0.498353 -0.369299,0.766508 -0.158698,0.561322 0.597167,0.584869 0.948066,0.588046 l -0.232849,1.547495 0.91714,1.38518 c -0.452066,0 -1.036793,0.09739 -1.466338,-0.05891 -1.112393,-0.404774 -2.461588,-2.208523 -2.692433,-3.362543 -0.118954,-0.59466 0.227337,-1.264001 0.05069,-1.85736 -0.122013,-0.409835 -0.503819,-0.684245 -0.664452,-1.075315 -0.271925,-0.662018 0.650271,-1.940886 -0.310767,-2.150627 v -3.030433 c 0,-0.387353 0.108849,-0.97858 -0.100473,-1.323249 -0.449259,-0.739754 -1.412717,-0.816674 -2.019456,-1.301904 -0.287388,-0.229833 -0.298661,-0.687744 -0.486591,-0.991811 -0.443939,-0.718285 -1.335528,-1.342395 -1.602185,-2.150631 -0.136512,-0.413759 0.0085,-1.876247 0.259701,-2.231412 0.26502,-0.374695 0.785862,-0.513671 1.013613,-0.914802 0.243888,-0.42955 0.01236,-1.078825 0.0027,-1.546062 -0.592263,-0.109958 -1.409062,0.04687 -1.927208,-0.287237 -1.269027,-0.818282 -1.542673,-1.886537 -3.2538507,-1.961148 l 0.097756,-0.68429 -0.8798025,-0.09776 v 0.293268 C 7.5595714,23.29796 5.3399525,22.748837 5.8890478,21.108616 5.6484329,20.966565 5.5647843,20.877043 5.693536,20.619839 5.2545131,19.461555 4.4794977,18.814265 4.4227104,17.491651 H 3.8361755 l 1.0753142,3.421456 C 3.9601691,20.890126 3.1630994,19.784192 3.0646558,18.860234 3.0127787,18.373338 3.2071732,17.686677 2.9951099,17.236554 2.8341725,16.894949 2.3609232,16.873035 2.1355227,16.584996 1.8989649,16.282702 1.9787817,15.798307 1.9787817,15.438779 h -0.097756 l -1.17306952,4.00799 H 1.0989793 c 0.039483,0.917223 0.4009353,1.897336 1.3685813,2.150627 -0.6309672,0.765658 -1.2236985,0.684293 -2.15062807,0.684293 l 0.0977561,-0.879802 0.58653497,-0.09776 -0.58653497,-0.68429 c -0.23344424,1.847162 -0.51029169,3.702656 -0.38227374,5.572082 0.56214656,8.208918 4.76860261,15.706431 11.81970411,20.096136 7.863965,4.895762 17.933636,4.907685 25.905292,0.278559 2.292685,-1.331355 5.398553,-3.398663 6.647398,-5.809079 h -0.782048 l -0.07113,-1.661847 -0.85129,-1.368583 -0.114122,-1.857359 -0.671617,-1.17307 0.760626,-2.34614 -1.514461,-2.83492 0.115859,-2.150627 -1.466338,-0.250579 -1.270824,-0.53056 -1.270828,0.456869 -1.449743,0.05635 -1.189666,0.06969 -1.591625,-1.659135 -0.935619,-1.368579 0.572126,-2.737162 h -0.586535 c -0.198199,-1.381115 1.312412,-1.747726 2.233906,-2.556816 0.558636,-0.490491 0.05048,-1.295416 0.615494,-1.780195 0.829126,-0.711379 1.634402,-0.561544 2.624925,-0.658796 0.488984,-0.04801 0.888253,-0.362159 1.368583,-0.446388 0.79764,-0.139863 1.665338,0.0026 2.443895,-0.227645 0,0.380414 -0.135992,1.091173 0.100473,1.411201 0.316364,0.428161 2.398856,0.899654 2.92996,0.934938 v -0.782044 l 1.270824,-0.02627 1.270825,0.758136 2.052872,0.05016 c -0.04177,-0.478465 -0.250254,-1.761179 -0.725245,-1.993886 -0.543196,-0.266123 -1.014087,0.05653 -1.512503,-0.455739 -0.416423,-0.428002 -0.370565,-0.919668 -0.499414,-1.460607 -0.717841,0.319482 -0.814103,0.948842 -0.977557,1.661847 h -0.195513 c -0.172753,-0.370539 -0.500286,-0.616913 -0.681651,-0.977557 -0.138759,-0.275929 -0.09263,-0.600668 -0.229227,-0.879729 -0.442094,-0.903153 -1.306678,-1.173144 -2.21731,-1.173144 0.197956,1.14948 1.130984,1.154116 1.759605,1.955118 -0.240721,0.210303 -0.128435,0.487096 -0.295979,0.743501 -0.395755,0.605651 -1.10648,0.217907 -1.365867,-0.254724 1.99263,0.07852 -0.744118,-1.332375 -1.075312,-2.052873 -0.650704,0.429784 -0.882972,0.589044 -1.66185,0.488781 -0.347181,0.555643 -0.978836,1.799127 -1.507219,2.147915 -0.515412,0.340223 -2.068093,0.183453 -2.441864,-0.311449 -0.344351,-0.455946 -0.382414,-1.578435 0.158554,-1.903522 0.710157,-0.426757 1.576371,-0.09021 2.324191,-0.0307 l 0.09776,-0.684289 -0.488784,-0.09776 0.09775,-1.17307 1.420933,-0.343501 1.024395,-1.091834 1.85593,-0.031 -0.09775,-1.1730699 -1.075315,0.3910257 C 40.496727,8.8068957 40.363064,8.4363608 39.712533,8.4003411 39.655361,7.1700439 40.901109,7.1243071 41.569892,6.3474724 40.198006,4.483529 37.378545,3.1427802 35.313515,2.2118541 29.688052,-0.3241531 22.989564,-0.73676706 17.130934,1.2718612 14.675591,2.1136746 12.629393,3.4365188 10.385782,4.6856222 m 0,1.3685791 v 0.4887803 c 0.647532,0 1.342214,0.1106159 1.466337,-0.6842895 l -1.466485,0.1955276 m 0,1.4663374 c 0.802405,0.8099466 2.024548,-0.5554772 0.586988,-0.1802722 -0.198004,0.051682 -0.392171,0.1179795 -0.586988,0.1802722 m 32.845957,0.3910258 c 0,0.9548937 -0.168168,1.2840664 -1.075315,1.6618466 0.262893,0.6539895 2.052916,0.6155195 2.170922,-0.1959636 0.07581,-0.5213825 -0.727023,-1.1839989 -1.095607,-1.465883 m -30.499817,2.1506271 0.293267,0.879802 c 0.604401,-0.133308 0.71819,-0.410031 0.879803,-0.9775567 l -1.17307,0.097755 M 3.8359941,11.72406 3.1517038,12.994885 C 3.5209449,12.696179 4.009713,12.232156 3.8359941,11.72406 m 10.2643609,0.68429 2.052873,0.09775 V 12.017328 L 15.85996,11.72406 c -0.679872,0 -1.48491,-0.07005 -1.759605,0.68429 m 2.34614,-0.391022 v 0.488776 l 0.391023,-0.09775 -0.391023,-0.391022 m -1.955116,2.150627 0.879802,-1.466338 c -0.730361,0.0086 -2.034628,1.041683 -0.879802,1.466338 m 1.466337,-1.466338 v 0.782048 c 0.962027,-0.05271 1.004312,-0.778497 0,-0.782048 m 1.368581,0.09775 0.48878,0.195513 v -0.195513 h -0.48878 m -0.293267,0.48878 c 0.03734,0.67962 0.348655,0.779824 0.977558,0.782048 -0.04682,-0.602696 -0.446094,-0.67199 -0.977558,-0.782048 M 2.6629246,13.58142 1.9786339,15.047757 h 0.097756 l 0.586535,-1.466337 m 44.5766521,0.09775 v 1.270828 l 0.586535,-0.09776 -0.586535,-1.17307 m -31.77064,0.879803 c 0.642188,-3.7e-4 1.117025,-0.04122 1.17307,-0.782044 -0.572599,0.01696 -1.012874,0.201235 -1.17307,0.782044 z"
       id="path1" /></g></svg>
