<?xml version="1.0" encoding="UTF-8" standalone="no"?>
<!-- Created with Inkscape (http://www.inkscape.org/) -->

<svg
   width="44.762226mm"
   height="50mm"
   viewBox="0 0 44.762225 50"
   version="1.1"
   id="svg1"
   xml:space="preserve"
   xmlns="http://www.w3.org/2000/svg"
   xmlns:svg="http://www.w3.org/2000/svg"><defs
     id="defs1" /><g
     id="layer1"
     transform="matrix(1.0404949,0,0,1.0404949,-88.812565,-3.3731753)"><path
       style="fill:#030303;stroke:none"
       d="m 89.521499,3.363977 v 34.863281 c 0.42573,0 1.065454,0.117809 1.44676,-0.100368 0.986678,-0.564564 0.799334,-2.474711 0.799334,-3.415257 0,-2.756798 -0.8349,-7.053104 2.734375,-7.919952 0.910788,-0.221199 1.882272,0.03419 2.636719,0.575086 0.38287,0.274497 0.689013,0.805915 1.175718,0.885087 1.081423,0.175912 2.317975,0.01447 3.414125,0.01447 h 7.03125 c 0.98002,0 2.05909,-0.126642 3.02734,0.02976 0.37771,0.06101 0.85701,0.292659 0.81426,0.751185 -0.10072,1.080201 -2.53088,0.683895 -3.25566,0.683895 H 98.603531 c 0,0.506482 -0.277682,2.427429 0.226357,2.67545 0.795344,0.391358 2.500402,0.05893 3.386922,0.05893 h 6.73828 c 0.95147,0 2.2066,-0.216597 3.12349,0.04235 0.83168,0.234878 0.52257,1.171285 -0.19387,1.302535 -1.37445,0.251788 -2.99632,0.0223 -4.39446,0.0223 h -3.51563 -5.371089 l 0.390625,4.394531 h 9.277344 c 0.94189,0 2.80433,0.354111 3.61328,-0.156581 1.30242,-0.82222 2.42645,-2.367521 3.51563,-3.4567 0.44405,-0.444052 1.18372,-0.959856 1.40591,-1.5625 0.42492,-1.152462 0.0589,-3.06772 0.0589,-4.296875 v -9.960938 -4.980468 c 0,-0.956968 0.0694,-1.862318 -0.61803,-2.627602 -1.04631,-1.164738 -3.05961,-0.790367 -4.46009,-0.790367 -0.46305,0 -1.15354,0.126532 -1.55188,-0.156581 -0.56826,-0.4038785 -0.40125,-1.2912874 -0.40125,-1.8942003 0,-1.4363766 0.38228,-3.4176379 -0.88282,-4.4404954 -1.29277,-1.04523 -3.89724,-0.5399733 -5.46483,-0.5399733 H 89.521499 m 21.484371,1.171875 c 0.39735,1.4139711 0.19532,3.0321538 0.19532,4.4921875 l 4.49218,0.1953125 c -1.12937,-1.6032786 -3.08422,-3.5581261 -4.6875,-4.6875 M 94.719585,7.9150896 c 0.503206,-0.2268761 1.38513,-0.058925 1.930821,-0.058925 h 4.589844 c 0.52357,0 1.57106,-0.1990319 2.01974,0.1003682 0.29833,0.1990765 0.22621,0.666213 0.22635,0.9738505 v 2.7343747 c -1.5e-4,0.341698 0.0758,0.84796 -0.30743,1.015294 -0.51274,0.223866 -1.38535,0.05892 -1.93866,0.05892 h -4.492188 c -0.548548,0 -1.638331,0.206804 -2.10609,-0.115139 -0.294375,-0.202603 -0.237143,-0.649313 -0.23766,-0.959075 V 8.9303832 c 5.65e-4,-0.3381819 -0.05959,-0.8462846 0.315273,-1.0152936 m -0.411422,8.0888924 c 1.330439,-0.375709 3.204634,-0.04235 4.588336,-0.04235 h 9.863281 c 1.00914,0 2.34672,-0.232163 3.3188,0.04235 0.50052,0.141344 0.76805,0.782523 0.34979,1.172102 -0.33271,0.309893 -0.90748,0.250232 -1.32484,0.250393 h -3.02734 -9.472659 c -1.286835,0 -3.067994,0.318771 -4.295368,-0.07852 -0.694526,-0.224811 -0.739777,-1.13507 0,-1.343978 m 0.09653,4.092819 c 1.444899,-0.300473 3.210768,-0.03361 4.687123,-0.03361 h 9.570314 c 1.05115,0 2.29007,-0.180561 3.31993,0.03361 0.54151,0.112608 0.90774,0.740239 0.44631,1.185742 -0.33347,0.321969 -0.90205,0.245469 -1.32484,0.245496 h -3.02734 -9.667968 c -1.189519,0 -3.089584,0.363177 -4.194923,-0.08726 -0.727049,-0.29628 -0.50446,-1.199275 0.191394,-1.34398 m 0,4.101562 c 1.444895,-0.300468 3.210763,-0.0336 4.687119,-0.0336 h 9.570308 c 1.05115,0 2.29008,-0.18056 3.31994,0.03361 0.5415,0.112608 0.90774,0.740236 0.44631,1.185742 -0.33348,0.32197 -0.90205,0.24547 -1.32484,0.245497 h -3.02734 -9.667972 c -1.189519,0 -3.089584,0.363177 -4.194923,-0.08726 -0.727047,-0.296277 -0.504463,-1.199276 0.191394,-1.343981 M 105.53712,47.11398 c 0.84944,-0.598353 1.56398,-1.963496 2.53907,-2.311725 1.11919,-0.399691 2.62351,1.02956 2.19809,2.172625 -0.38341,1.030189 -1.81957,1.559389 -2.29575,2.580506 1.83068,0.514653 3.75728,0.270402 5.04633,-1.269606 0.54894,-0.655824 0.90641,-1.491207 0.9917,-2.343675 0.0823,-0.82205 -0.21346,-1.496554 0.40917,-2.148438 1.74694,-1.829028 3.5807,-3.582591 5.36921,-5.371094 0.93854,-0.938543 1.85501,-2.118295 2.92968,-2.897208 0.62284,-0.451428 1.95104,-0.07901 2.73438,-0.328237 2.65042,-0.843251 3.28574,-3.445703 2.73437,-5.856586 -1.01245,0.472147 -1.58083,1.978874 -2.63671,2.29078 -1.12887,0.333461 -2.56115,-1.052386 -2.12772,-2.193123 0.37164,-0.978113 1.7178,-1.679871 2.32303,-2.539063 -1.73794,-0.555715 -3.66803,-0.328147 -4.96246,1.078063 -0.72715,0.789941 -1.06063,1.777235 -1.16058,2.828187 -0.0599,0.629425 0.23313,1.122478 -0.23419,1.660156 -1.61635,1.859707 -3.52122,3.530795 -5.26387,5.273438 -1.01728,1.017287 -2.03373,2.373439 -3.22265,3.18287 -0.46612,0.317341 -1.30625,0.09115 -1.85547,0.137517 -0.85625,0.07229 -1.68978,0.45084 -2.34232,1.008287 -1.49427,1.276511 -1.74282,3.265264 -1.17331,5.046326 M 88.154312,39.692102 V 28.461633 h -0.09766 c -0.821951,1.202077 -2.194151,2.266884 -2.588871,3.710938 -0.344746,1.261231 0.183357,2.425992 0.57034,3.613281 0.654856,2.009138 1.330849,4.021388 1.90716,6.054687 0.301787,1.064742 0.539243,2.122903 0.669428,3.222656 0.03925,0.331536 -0.107871,1.035285 0.184462,1.26682 0.430236,0.340754 1.750889,0.100368 2.284824,0.100368 h 6.445313 c 0.348356,-1.519543 1.03994,-2.996251 0.972719,-4.589844 -0.08425,-1.997253 -1.058526,-3.856674 -1.24911,-5.859375 -0.187594,-1.971265 0.12024,-3.982395 -0.02539,-5.957031 -0.113605,-1.540363 -1.787724,-2.395225 -3.115808,-1.624364 -1.148489,0.666619 -0.976939,1.954213 -0.976939,3.089208 0,1.983666 0.406255,4.482963 -0.378493,6.347656 -0.239698,0.569558 -0.638877,1.440337 -1.200962,1.7551 -0.777746,0.435526 -2.51524,0.100369 -3.401017,0.100369 m -0.191018,8.177957 c -0.785632,0.320148 -0.785633,2.952844 0,3.272992 0.639145,0.260454 1.6562,0.07249 2.339455,0.07249 h 5.273438 c 0.688562,0 1.919386,0.235883 2.533336,-0.100368 0.690414,-0.378129 0.655879,-2.945769 -0.09381,-3.245112 -0.64514,-0.257597 -1.654008,-0.07249 -2.341867,-0.07249 h -5.078128 c -0.761437,0 -1.921596,-0.217175 -2.632424,0.07249 z"
       id="path1" /></g></svg>
