<?xml version="1.0" encoding="UTF-8" standalone="no"?>
<!-- Created with Inkscape (http://www.inkscape.org/) -->

<svg
   width="49.922646mm"
   height="50.000004mm"
   viewBox="0 0 49.922646 50.000004"
   version="1.1"
   id="svg1"
   xml:space="preserve"
   xmlns="http://www.w3.org/2000/svg"
   xmlns:svg="http://www.w3.org/2000/svg"><defs
     id="defs1" /><g
     id="layer1"
     transform="matrix(0.99845278,0,0,0.99845278,-91.595288,3.8941046e-5)"><path
       style="fill:#020202;stroke:none;stroke-width:1.14423"
       d="m 112.40933,6.3866703 c -1.40481,0.1147419 -2.87294,0.7771612 -4.13442,1.376675 -0.46,0.2186166 -1.14595,0.85104 -1.67611,0.7813255 -1.75115,-0.2302692 -3.31901,-4.3467253 -5.36358,-3.259374 -0.47702,0.2536886 -0.85209,0.7243359 -1.22915,1.1013735 l -1.452636,1.4526343 c -0.572166,0.5721654 -1.581086,1.2716382 -1.717848,2.1230807 -0.317275,1.9752727 3.223574,3.1261837 3.415954,4.9166087 0.0594,0.552707 -0.598453,1.301808 -0.828665,1.787858 -0.586823,1.23897 -1.203762,2.64356 -1.316405,4.02268 -1.251029,0.158105 -2.539264,0.273627 -3.799198,0.330825 -0.599394,0.02721 -1.48416,-0.04329 -1.999614,0.310824 -0.579454,0.398074 -0.570189,1.078495 -0.570432,1.704915 v 4.13442 c 9.93e-4,0.594211 0.02732,1.220071 0.570432,1.593173 0.515456,0.354106 1.400219,0.283612 1.999614,0.310824 1.259932,0.05719 2.54817,0.17272 3.799198,0.330825 0.112031,1.371629 0.732651,2.790189 1.316405,4.02268 0.230213,0.486053 0.888045,1.23515 0.828665,1.787858 -0.19238,1.790421 -3.733229,2.941339 -3.415954,4.916608 0.136763,0.851446 1.145682,1.550915 1.717848,2.12308 l 1.452636,1.452635 c 0.3806,0.380578 0.75502,0.840112 1.22915,1.107324 0.75358,0.424714 1.43599,-0.06052 2.01134,-0.549049 0.80986,-0.687649 2.29243,-2.553714 3.35224,-2.713517 0.54529,-0.08222 1.31287,0.610164 1.78785,0.838492 1.22599,0.589341 2.65536,1.20507 4.02268,1.31675 0.15811,1.251028 0.27363,2.539266 0.33083,3.799197 0.0272,0.599395 -0.0433,1.484158 0.31082,1.999614 0.39807,0.579455 1.0785,0.570189 1.70491,0.570432 h 4.13443 c 0.58995,-9.85e-4 1.21776,-0.02256 1.58024,-0.570432 0.35297,-0.533496 0.29593,-1.386762 0.32376,-1.999614 0.0572,-1.259931 0.17271,-2.548169 0.33082,-3.799197 0.6595,-0.05387 2.25881,-0.300825 2.67868,-0.860646 0.386,-0.514655 0.11485,-1.976459 0.11485,-2.603328 v -7.151431 c -2.12622,1.223164 -3.90336,2.564351 -6.48099,2.677388 -6.29531,0.276072 -12.00146,-5.180521 -11.37863,-11.616676 0.27177,-2.80829 1.61703,-5.240388 3.66849,-7.141343 1.14687,-1.062724 2.53943,-1.783418 4.02269,-2.242065 2.09352,-0.647354 4.0438,-0.436462 6.14575,-0.0029 -0.80782,-2.953583 -1.71807,-5.3588198 -1.09508,-8.4923078 0.24877,-1.2511812 0.65047,-2.4411414 1.23571,-3.5757153 0.29437,-0.5706953 0.82317,-1.2164428 0.55853,-1.89787339 -0.22103,-0.56913007 -0.81044,-0.7655397 -1.36961,-0.78218766 -1.41272,-0.04206323 -2.83275,-0.0017255 -4.24615,-0.0017255 -0.64877,0 -1.38028,-0.07503167 -1.85114,0.47084847 -0.43847,0.50831843 -0.35942,1.46772058 -0.38808,2.09919698 -0.0572,1.2599314 -0.17272,2.5481732 -0.33083,3.7991975 m 24.13608,-6.25750179 c -0.24556,0.83074359 -0.1118,1.81887559 -0.1118,2.68178649 v 5.140091 c 0,0.7344565 0.21496,1.8736989 -0.0674,2.557973 -0.24683,0.59814 -1.3942,0.82018 -1.94392,1.040071 -0.71195,0.284792 -1.68454,0.898673 -2.4583,0.898673 -0.83773,0 -1.90983,-0.679285 -2.68178,-0.988081 -0.49019,-0.196086 -1.38456,-0.372397 -1.67301,-0.851941 -0.38319,-0.6370898 -0.11484,-2.0392851 -0.11484,-2.7684364 V 2.810955 c 0,-0.8629177 0.13381,-1.8510429 -0.11179,-2.68178649 -5.03327,2.10941679 -6.64497,9.19061669 -3.9037,13.63241549 0.65599,1.062931 1.44084,2.030395 2.45106,2.776108 0.48136,0.355322 1.44096,0.714645 1.54783,1.363141 0.35386,2.147449 0.0166,4.632523 0.0166,6.811378 v 13.967638 c 0,3.769155 -1.31548,11.394316 4.46964,11.394316 5.78443,0 4.46965,-7.621891 4.46965,-11.394316 V 24.712211 c 0,-2.178855 -0.33732,-4.663926 0.0166,-6.811378 0.10241,-0.621717 0.97708,-0.934666 1.43608,-1.276228 0.97679,-0.726873 1.76723,-1.60783 2.41079,-2.63954 2.80711,-4.5001744 1.48644,-11.6635025 -3.75168,-13.85589649 z"
       id="path1" /></g></svg>
