<?xml version="1.0" encoding="UTF-8" standalone="no"?>
<!-- Created with Inkscape (http://www.inkscape.org/) -->

<svg
   width="33.273472mm"
   height="50.000004mm"
   viewBox="0 0 33.273472 50.000004"
   version="1.1"
   id="svg1"
   xml:space="preserve"
   xmlns="http://www.w3.org/2000/svg"
   xmlns:svg="http://www.w3.org/2000/svg"><defs
     id="defs1" /><g
     id="layer1"><path
       style="fill:#020202;stroke:none;stroke-width:0.369068"
       d="M 15.848331,0.06593259 C 13.334135,0.39604526 10.990159,0.76185416 8.7199388,2.0079155 6.9849438,2.96021 5.4207866,4.2045367 4.1152832,5.6881448 3.0691717,6.8769749 2.2719004,8.1815593 1.5674386,9.5941108 -3.0470194,18.846821 3.5724952,27.620052 7.9523848,35.471143 c 2.0645212,3.700725 4.1718752,7.389697 6.1597342,11.132008 0.470351,0.885478 1.384218,3.516345 2.614978,3.392629 1.067702,-0.107317 1.824877,-2.266449 2.267482,-3.099682 1.708522,-3.216429 3.528199,-6.377255 5.281419,-9.569617 1.700952,-3.097192 3.410455,-6.190866 5.131931,-9.276675 1.501383,-2.691283 3.077815,-5.31803 3.61844,-8.397827 C 34.514598,11.173953 29.138303,2.6510862 20.730788,0.5492047 19.208306,0.1685851 17.416976,-0.14002937 15.848331,0.06593259 m 0.390596,8.28661951 c 5.169565,-0.6082938 9.137649,4.5574039 8.6742,9.3464419 -0.373176,3.856153 -3.703499,6.939474 -7.50241,7.30711 C 10.758437,25.649869 6.0350962,18.150552 9.4477109,12.425938 10.948492,9.9084053 13.419758,8.6842776 16.238927,8.3525521 Z"
       id="path1" /></g></svg>
