<?xml version="1.0" encoding="UTF-8" standalone="no"?>
<!-- Created with Inkscape (http://www.inkscape.org/) -->

<svg
   width="75.000099mm"
   height="50.000057mm"
   viewBox="0 0 75.000099 50.000057"
   version="1.1"
   id="svg1"
   xmlns="http://www.w3.org/2000/svg"
   xmlns:svg="http://www.w3.org/2000/svg">
  <defs
     id="defs1" />
  <g
     id="layer1"
     transform="translate(-50.000051,-50.000048)">
    <path
       id="rect1"
       style="fill:#000000;stroke:none;stroke-width:2.10032;stroke-linejoin:round"
       d="m 52.422123,50.000049 c -0.586011,0 -1.114701,0.214728 -1.532723,0.558622 l 2.147673,1.258838 34.464046,19.159554 34.463531,-19.159554 2.14664,-1.258838 c -0.41807,-0.344046 -0.94709,-0.558622 -1.53324,-0.558622 z m -2.422074,2.970878 v 44.607096 c 0,0.207706 0.03394,0.405758 0.08268,0.597897 L 64.385734,83.966451 a 1.6728484,0.93422242 0 0 1 0.02067,-0.01964 l 15.330848,-14.44356 z m 75.000071,0.0021 -29.738751,16.530257 15.332911,14.443563 a 1.6728484,0.93422242 0 0 1 0.0212,0.01964 l 14.30197,14.210502 c 0.0489,-0.192429 0.0827,-0.390876 0.0827,-0.59893 z m -32.18253,17.888831 -3.427697,1.90531 a 2.1993087,0.72476177 0 0 1 -3.782199,0 l -3.425113,-1.90431 -14.889014,14.028084 -15.178919,15.07815 c 0.101761,0.01293 0.202092,0.03101 0.307475,0.03101 h 70.155927 c 0.10573,0 0.20642,-0.01799 0.30851,-0.03101 l -15.17944,-15.07815 z" />
  </g>
</svg>
